<?xml version="1.0" encoding="utf-8"?>
<!-- Generator: Adobe Illustrator 24.2.3, SVG Export Plug-In . SVG Version: 6.00 Build 0)  -->
<svg version="1.1" id="Capa_1" xmlns="http://www.w3.org/2000/svg" xmlns:xlink="http://www.w3.org/1999/xlink" x="0px" y="0px"
	 viewBox="0 0 230.11 246.61" style="enable-background:new 0 0 230.11 246.61;" xml:space="preserve">
<g>
	<path d="M111.47,1.26C74.7,15.18,37.84,28.89,1.1,42.89c-6.33,57.82,15.33,117.4,54.32,160.13c16.68,18.22,36.87,33.27,59.34,43.59
		c52.08-23.07,90.17-71.95,106.52-125.86c7.56-25.11,10.56-51.67,7.84-77.79c-37.88-14.43-75.88-28.56-113.78-42.94
		C113.96,0.12,112.76,0.84,111.47,1.26L111.47,1.26z M114.7,14.43c34,12.21,67.78,25.38,101.65,38.06
		c3.14,44.46-11.89,89.4-37.88,125.34c-16.57,22.59-38.11,41.69-63.17,54.37c-52.01-25.56-87.71-78.32-98.76-134.55
		c-2.68-14.84-4.46-30.24-2.76-45.19C47.39,39.71,81.05,27.07,114.7,14.43L114.7,14.43z M114.7,14.43"/>
	<path d="M162.29,178.97c0,1.43-1.28,2.61-2.81,2.61c-0.87,0-2.25-0.55-3.72-1.47c-1.37-0.87-5.62-3.6-7.87-5.07
		c-0.84-0.55-2.2-1.43-3.02-1.96c-1.34-0.85-5.57-3.58-9.89-6.36c-0.82-0.53-2.19-1.41-3.02-1.96c-3.37-2.19-4.86-3.14-8.06-5.19
		c-3.64-2.35-6.12-3.95-8.9-5.75c-3.52-2.28-10.19-6.57-14.62-9.4c-1.05-0.67-2.41-1.55-3.04-1.96c-0.62-0.41-2-1.31-3.07-1.99
		c-1.08-0.68-2.41-1.53-2.98-1.9c-0.58-0.36-1.66-1.06-2.4-1.55c-1.61-1.03-2.26-1.82-2.43-2.9c-0.21-1.46,0.8-2.92,2.61-3.74
		c0.36-0.17,0.99-0.47,1.37-0.67c0.38-0.2,1.55-0.77,2.63-1.29c1.06-0.52,2.49-1.21,3.14-1.58c0.67-0.35,1.25-0.64,1.31-0.64
		c0.05,0,0.64-0.29,1.32-0.64c0.68-0.35,1.97-0.99,2.87-1.43c2.38-1.17,3.99-2.03,4.21-2.28c0.11-0.12,0.26-0.52,0.32-0.88
		c0.12-0.62,0.38-1.73,1.17-4.89c0.18-0.77,0.56-2.31,0.84-3.4c0.27-1.09,0.64-2.54,0.84-3.22c0.59-2.19,0.73-1.9-3.07-7.06
		c-1.88-2.55-3.87-5.24-4.43-5.97c-0.56-0.73-1.47-1.93-2.03-2.66c-0.26-0.33-0.53-0.7-0.77-1c-0.82,0.26-1.66,0.38-2.51,0.38
		c-2.6,0-5.18-1.15-6.91-3.36L69.7,64.87c-2.99-3.81-2.34-9.32,1.46-12.33c1.61-1.26,3.52-1.88,5.42-1.88c2.6,0,5.16,1.15,6.89,3.36
		l19.66,24.93c2.16,2.73,2.43,6.35,0.99,9.29c0.14,0.2,0.3,0.39,0.47,0.61c2.17,2.76,3.8,4.93,7.61,10.13
		c4.72,6.47,4.83,6.64,4.83,7.58c0,0.43-0.15,1.37-0.35,2.05c-0.18,0.7-0.5,1.94-0.71,2.76c-0.2,0.82-0.53,2.16-0.74,2.98
		c-0.77,3.04-1.26,5-1.37,5.48c-0.12,0.56,0.05,0.82,2.78,4.39c0.8,1.05,1.88,2.46,2.4,3.14c2.26,2.99,3.02,4.01,4.24,5.57
		c0.7,0.9,1.75,2.28,2.32,3.07c0.58,0.76,1.4,1.85,1.82,2.4c2.11,2.73,8.91,11.72,9.9,13.1c0.17,0.23,0.52,0.59,0.8,0.82l0.5,0.44
		l-0.12-0.46c-0.17-0.61-0.9-1.84-2.63-4.46c-0.27-0.43-2.1-3.25-3.08-4.8c-0.18-0.29-1.08-1.7-2-3.16
		c-0.91-1.46-1.73-2.73-1.81-2.82c-0.08-0.09-0.33-0.5-0.59-0.91c-0.24-0.41-0.99-1.59-1.67-2.64c-1.55-2.41-1.49-2.34-3.75-5.89
		c-1.05-1.64-2.49-3.92-3.22-5.06c-0.73-1.14-1.55-2.4-1.84-2.81c-0.68-0.97-0.67-1.49,0.08-1.93c0.5-0.29,6.89-4.24,10.23-6.32
		c1.79-1.11,3.19-1.14,4.69-0.11c0.74,0.5,0.96,0.9,2.66,4.86c0.77,1.78,1.47,3.39,1.56,3.57c0.09,0.18,0.27,0.62,0.43,0.99
		c0.14,0.36,0.59,1.44,1.02,2.41c0.41,0.96,0.88,2.03,1.02,2.4c0.61,1.53,1.2,2.82,1.35,2.98c0.09,0.09,0.17,0.26,0.17,0.39
		c0,0.12,0.2,0.65,0.44,1.17c0.59,1.26,2.26,5.09,2.57,5.91c0.15,0.36,0.33,0.82,0.43,0.99c0.09,0.18,0.85,1.94,1.7,3.9
		c3.74,8.69,6.48,15.03,6.64,15.34c0.09,0.18,0.79,1.79,1.53,3.57c0.76,1.78,1.46,3.39,1.55,3.57c0.09,0.18,0.94,2.16,1.9,4.39
		c0.96,2.23,1.82,4.21,1.91,4.4c0.11,0.18,0.26,0.55,0.33,0.82c0.09,0.27,0.43,1.06,0.74,1.75
		C161.79,176.81,162.29,178.29,162.29,178.97z"/>
</g>
</svg>
