<?xml version="1.0" encoding="utf-8"?>
<!-- Generator: Adobe Illustrator 24.2.3, SVG Export Plug-In . SVG Version: 6.00 Build 0)  -->
<svg version="1.1" id="Capa_1" xmlns="http://www.w3.org/2000/svg" xmlns:xlink="http://www.w3.org/1999/xlink" x="0px" y="0px"
	 viewBox="0 0 230.11 246.61" style="enable-background:new 0 0 230.11 246.61;" xml:space="preserve">
<g>
	<path d="M111.47,1.51C74.69,15.42,37.83,29.13,1.1,43.13c-6.33,57.82,15.32,117.4,54.32,160.13
		c16.67,18.22,36.87,33.27,59.33,43.59c52.09-23.06,90.17-71.95,106.53-125.86c7.56-25.11,10.56-51.68,7.84-77.79
		c-37.88-14.44-75.88-28.56-113.78-42.94C113.96,0.37,112.75,1.08,111.47,1.51L111.47,1.51z M114.7,14.67
		c34.01,12.21,67.78,25.37,101.65,38.06c3.13,44.46-11.9,89.4-37.88,125.33c-16.57,22.59-38.11,41.68-63.17,54.37
		c-52.01-25.56-87.71-78.32-98.77-134.55c-2.67-14.85-4.45-30.24-2.76-45.2C47.39,39.96,81.04,27.31,114.7,14.67L114.7,14.67z
		 M114.7,14.67"/>
	<path d="M77.58,182.55c-1.33-1.3-2.82-1.74-4.17-3.15c-1.9-1-1.83-3.07-0.55-4.53c2.93-3.91,5.36-8.24,8.24-12.21
		c2.63-4.04,5.52-7.91,7.84-12.07c1.14-0.84,1.95-2.88,3.01-4.16c1.99-1.61-0.71-2.77-1.68-3.98c-4.31-3.97-8.19-8.43-12.63-12.24
		c-0.82-1.52-2.94-2.71-4.15-4.26c-2.17-1.33-2.58-3.14-0.15-4.46c3.32-3.16,6.56-6.59,9.78-9.71c3.11-2.8,6.09-5.93,9.07-8.94
		c1.27-1.52-1.55-3.17-2.08-4.74c-1.05-1.97-2.74-3.61-3.63-5.73c-1.13-1.35-1.99-2.36-2.83-3.97c-2.22-3.47-4.58-6.89-6.97-10.23
		c-1.56-2.46-3.41-5.92-5.23-8.29c1.48-2.82,4.38-3.52,6.5-5.39c1.21-0.85,3.52-1.77,4.41-2.22c1.56,2.01,3.81,5.94,5.38,7.87
		c1.25,1.99,2.85,4.25,4.11,6.34c0.99,1.26,1.32,2.71,2.4,3.75c1.86,2.66,3.42,5.37,5.24,8.16c1.12,1.35,1.66,3.29,3.13,4.26
		c3.84-3.95,7.89-7.69,11.79-11.59c1.96-0.1,3.04,2.26,4.42,3.41c2.91,2.59,5.68,5.51,8.46,8.3c2.78-3.83,5.25-7.85,7.73-11.87
		c0.39-1.12,1.99-2.63,2.67-4.07c1.45-2.38,3.18-4.92,4.61-7.06c1.01-1.91,2.6-3.86,3.73-5.84c0.19-0.57,0.75-1.13,1.72-0.84
		c2.53,1.33,8.11,4.87,10.27,6.93c-0.26,1.68-1.65,2.62-2.31,3.98c-3.06,4.74-6.11,9.56-9.46,14.09c-1.14,2.26-3.05,4.4-4.35,6.61
		c-1.35,2.14-2.83,4.27-4.43,6.4c-0.94,1.34,0.77,2.26,1.92,3.46c4.75,4.43,9.21,9.31,14.04,13.56c1.38,1.75,3.54,3.62,5.23,5.41
		c-7.01,7.28-14.4,14.19-21.58,21.31c0.58,1.78,2.33,3.47,3.33,5.27c2.26,3.46,4.7,7.05,6.98,10.32c1.57,2.55,3.81,5.57,5.46,8.21
		c1.7,2.47,3.32,5.12,5.07,7.6c0.32,3.15-3.4,4.35-5.46,6.02c-0.43,0.44-3.99,2.27-4.86,2.24c-0.91-0.6-2.9-3.36-3.68-4.68
		c-0.8-0.94-1.37-2.47-2.38-3.59c-1.88-2.85-3.66-5.69-5.47-8.47c-2.31-3.5-4.62-7.3-6.98-10.82c-0.83-2.13-2.26-3.18-3.7-0.67
		c-3.49,3.32-6.69,7.04-10.46,10.01c-2.57-1.67-4.74-4.38-7.04-6.58l-5.47-5.36c-1.85,2.26-3.16,5.09-4.94,7.5
		c-2.44,3.96-5.28,7.95-7.56,11.81c-2.01,2.57-3.46,5.53-5.37,8.16c-1.23,1.68-1.44,2.08-2.37,3.01
		C81.54,184.65,78.41,183.19,77.58,182.55L77.58,182.55z M116.06,152.24c2.12-1.8,4.08-3.81,6.18-5.63
		c-0.98-2.42-2.76-4.2-3.99-6.51c-1.21-1.59-2.26-3.55-3.34-5.03c-0.84,1.43-2.29,2.92-2.87,4.65c-1.5,1.32-2.23,3.46-3.59,5.08
		c-1.72,1.84,0.12,2.81,1.45,4.01C111.71,150.23,113.43,153.28,116.06,152.24L116.06,152.24z M98.79,136.14
		c2.49-3.64,4.95-7.4,7.43-10.94c1.79-1.61,0.08-3.05-0.95-4.54c-1.72-2.9-3.57-5.64-5.67-8.3c-0.5-1.38-1.84-3.69-3.16-1.4
		c-1.81,1.93-3.87,3.52-5.48,5.37c-2.48,1.91-4.6,4.23-6.88,6.36c-0.35,2.98,3.1,4.24,4.7,6.23c3.05,2.74,5.98,5.83,9.1,8.35
		C98.36,137.26,98.47,136.43,98.79,136.14L98.79,136.14z M97.66,136.14C98.58,135.87,97.39,136.74,97.66,136.14L97.66,136.14z
		 M132.5,136.93c4.24-4.26,8.9-8.21,13.04-12.42c0.6-2.71-2.42-3.93-3.92-5.69c-3.28-2.99-6.44-6.07-9.67-9.11
		c-1,1.04-1.68,2.61-2.52,3.61c-0.73,1.12-1.75,2.61-2.67,4.06c-1.04,1.23-1.85,2.83-2.78,4c-0.5,0.98-2.4,2.37-0.64,3.4
		c2.78,4.21,5.58,8.29,8.36,12.52C132.08,137.35,132.29,137.27,132.5,136.93L132.5,136.93z M137.95,116.59
		C138.88,116.32,137.69,117.19,137.95,116.59L137.95,116.59z M115.62,111.04c1.25-1.66,2.04-3.07,3.1-4.8
		c1.11-1.88,2.49-3.61,3.49-5.58c-2.17-1.89-4.03-4.34-6.45-5.82c-2.75-0.82-3.91,2.29-5.88,3.59c-1.19,1.13-3.46,2.32-1.36,3.84
		c0.74,1.29,1.81,2.53,2.37,3.75c1.52,1.9,2.57,4.27,4.04,6.08C115.15,111.75,115.39,111.39,115.62,111.04L115.62,111.04z
		 M114.71,110.79C114.95,110.35,114.96,111.2,114.71,110.79L114.71,110.79z M152.46,64.01C153.38,63.74,152.19,64.6,152.46,64.01
		L152.46,64.01z M152.46,64.01"/>
</g>
</svg>
