<?xml version="1.0" encoding="utf-8"?>
<!-- Generator: Adobe Illustrator 24.2.3, SVG Export Plug-In . SVG Version: 6.00 Build 0)  -->
<svg version="1.1" id="Capa_1" xmlns="http://www.w3.org/2000/svg" xmlns:xlink="http://www.w3.org/1999/xlink" x="0px" y="0px"
	 viewBox="0 0 230.11 246.61" style="enable-background:new 0 0 230.11 246.61;" xml:space="preserve">
<style type="text/css">
	.st0{fill-rule:evenodd;clip-rule:evenodd;}
</style>
<g>
	<path d="M111.47,1.25C74.69,15.18,37.83,28.88,1.1,42.89c-6.33,57.82,15.32,117.39,54.32,160.13
		c16.67,18.22,36.86,33.27,59.33,43.59c52.09-23.06,90.18-71.95,106.53-125.86c7.56-25.11,10.56-51.67,7.84-77.79
		c-37.88-14.44-75.88-28.57-113.78-42.94C113.96,0.11,112.76,0.83,111.47,1.25L111.47,1.25z M114.7,14.43
		c34.01,12.21,67.78,25.37,101.65,38.06c3.14,44.46-11.89,89.4-37.88,125.34c-16.57,22.59-38.11,41.68-63.17,54.37
		c-52.01-25.56-87.71-78.32-98.76-134.55c-2.67-14.84-4.45-30.24-2.76-45.2C47.39,39.72,81.04,27.06,114.7,14.43L114.7,14.43z
		 M114.7,14.43"/>
	<g>
		<path d="M79.51,185.77c4.97-10.98,9.99-21.94,14.98-32.91c0.35,3.72,0.51,7.52,0.9,11.22c11.96-14.08,23.97-28.11,35.88-42.22
			c-5.65-9.4-11.12-18.96-16.89-28.25c-5.39-1.5-10.83-2.85-16.19-4.45c-1.96-1.12-0.49-4.42,1.64-3.64c3.89,1,7.84,2.25,11.7,3.1
			c-1.26-1.85-2.14-4.14-3.63-5.73c-5.31-1.41-10.71-2.55-15.96-4.13c-1.9-1.3-0.13-4.51,1.99-3.49c3.75,0.9,7.69,2.03,11.32,2.79
			c-1.2-1.77-2.06-4-3.48-5.47c-5.29-1.42-10.69-2.55-15.92-4.13c-1.86-1.2-0.32-4.36,1.77-3.54c4.75,1.17,9.54,2.46,14.28,3.57
			c1.32-5.06,2.38-10.21,3.87-15.21c1.32-2,4.49-0.09,3.45,2.04c-1.22,5.13-2.63,10.23-3.74,15.37c1.07,1.69,2.2,3.94,3.24,5.27
			c1.14-4.13,1.89-8.41,3.24-12.47c1.37-1.88,4.45,0.08,3.38,2.15c-1.26,5.09-2.52,10.18-3.78,15.27c1.14,1.86,2.32,4.04,3.43,5.69
			c1.11-4.25,1.72-8.69,3.13-12.83c1.42-1.85,4.42,0.17,3.35,2.25c-1.18,5.19-2.37,10.39-3.56,15.58
			c6.03,10.25,12.28,20.47,18.17,30.73c-12.51,14.81-25.13,29.55-37.68,44.33c3.68-0.11,7.43-0.61,11.08-0.75
			c-10.01,6.66-20.01,13.32-30.02,19.98L79.51,185.77z M79.51,185.77"/>
		<polyline class="st0" points="135.96,52.43 135.96,74.67 138.9,74.67 138.9,82.08 135.96,82.08 135.96,119.14 138.9,119.14 
			138.9,126.55 135.96,126.55 135.96,163.61 138.9,163.61 138.9,171.02 135.96,171.02 135.96,185.85 150.65,185.85 150.65,52.43 		
			"/>
	</g>
</g>
</svg>
