<?xml version="1.0" encoding="utf-8"?>
<!-- Generator: Adobe Illustrator 24.2.3, SVG Export Plug-In . SVG Version: 6.00 Build 0)  -->
<svg version="1.1" id="Capa_1" xmlns="http://www.w3.org/2000/svg" xmlns:xlink="http://www.w3.org/1999/xlink" x="0px" y="0px"
	 viewBox="0 0 230.11 246.61" style="enable-background:new 0 0 230.11 246.61;" xml:space="preserve">
<g>
	<path d="M111.47,1.42C74.7,15.32,37.84,29.01,1.1,42.99c-6.33,57.74,15.32,117.25,54.32,159.92c16.68,18.2,36.86,33.23,59.34,43.53
		c52.08-23.03,90.17-71.85,106.52-125.69c7.56-25.07,10.55-51.6,7.84-77.69c-37.88-14.41-75.89-28.53-113.78-42.89
		C113.96,0.28,112.76,0.99,111.47,1.42L111.47,1.42z M114.7,14.58c34.01,12.18,67.78,25.34,101.66,38.01
		c3.13,44.4-11.9,89.28-37.89,125.17c-16.57,22.57-38.11,41.63-63.17,54.3c-52.01-25.53-87.71-78.22-98.76-134.37
		c-2.67-14.82-4.45-30.2-2.76-45.14C47.39,39.83,81.04,27.19,114.7,14.58L114.7,14.58z M114.7,14.58"/>
	<g>
		<g>
			<path d="M111.65,87.32c-4.82,0.02-9.86,1.13-13.68,4.21c-0.91,0.79-1.83,1.68-2.35,2.78c-0.41,0.99,0.79,0.92,0.99,0.15
				c3.07-3.33,7.47-5.19,11.9-5.83c4.33-0.43,8.79-0.19,12.91,1.27c0.99,0.35,1.91,0.92,2.6,1.71c1.1,0.84,0.91-1.03,0.15-1.35
				c-1.29-1.13-3.04-1.52-4.65-1.99C116.95,87.61,114.3,87.32,111.65,87.32L111.65,87.32z M111.65,87.32"/>
			<path d="M95.91,95.49c-0.25,0-0.48-0.1-0.63-0.28c-0.13-0.15-0.31-0.49-0.07-1.07c0.56-1.19,1.52-2.12,2.47-2.95
				c4.4-3.54,10.02-4.3,13.97-4.32l0,0c2.84,0,5.52,0.33,7.99,0.97l0.61,0.17c1.46,0.41,2.97,0.84,4.16,1.87
				c0.51,0.26,0.8,0.9,0.82,1.43c0.02,0.41-0.13,0.72-0.41,0.87c-0.2,0.11-0.56,0.17-1.07-0.22c-0.68-0.76-1.51-1.31-2.49-1.65
				c-3.68-1.3-7.95-1.72-12.71-1.25c-4.7,0.68-8.8,2.67-11.55,5.62c-0.14,0.38-0.47,0.68-0.86,0.77
				C96.06,95.48,95.99,95.49,95.91,95.49z M111.65,87.77c-3.8,0.01-9.21,0.74-13.4,4.11c-0.86,0.75-1.74,1.6-2.22,2.62
				c-0.01,0.03-0.02,0.05-0.03,0.07c0.07-0.03,0.15-0.1,0.18-0.22l0.1-0.19c2.89-3.13,7.21-5.25,12.17-5.97
				c4.9-0.48,9.31-0.05,13.12,1.29c1.11,0.39,2.07,1.02,2.78,1.83c-0.03-0.22-0.16-0.56-0.35-0.63l-0.13-0.08
				c-1.05-0.93-2.48-1.33-3.87-1.72l-0.61-0.17C117.02,88.08,114.41,87.77,111.65,87.77L111.65,87.77z"/>
		</g>
		<g>
			<path d="M111.49,92.17c-3.2-0.03-6.49,1.07-8.78,3.35c-1.95,2.04-4.56,4.67-4.91,7.49c1.14,0.4,1.39-1.77,1.86-2.39
				c1.23-2.89,4.24-4.75,6.99-6.2c4.2-2.01,9.49-0.87,12.79,2.32c1.14,1.07,2.08,2.35,2.83,3.73c0.92,0.73,0.63-0.98,0.36-1.43
				c-0.49-1.05-1.19-2.01-1.96-2.88C118.3,93.69,114.92,92.17,111.49,92.17L111.49,92.17z M111.49,92.17"/>
			<path d="M98.08,103.5c-0.13,0-0.28-0.02-0.43-0.08l-0.34-0.12l0.05-0.35c0.35-2.85,2.81-5.42,4.79-7.49l0.24-0.25
				c2.24-2.22,5.51-3.48,8.98-3.48c0.04,0,0.08,0,0.13,0c3.52,0,6.98,1.51,9.49,4.12c0.91,1.02,1.58,2,2.05,3
				c0.2,0.32,0.56,1.61,0.03,2.08c-0.13,0.12-0.5,0.34-1.08-0.12l-0.11-0.14c-0.78-1.42-1.7-2.63-2.74-3.62
				c-3.31-3.2-8.35-4.12-12.29-2.24c-2.69,1.42-5.61,3.24-6.78,5.97c-0.16,0.23-0.27,0.54-0.39,0.85
				C99.41,102.36,98.99,103.5,98.08,103.5z M99.39,100.13c-0.46,0.72-0.82,1.47-1.02,2.23c0.15-0.21,0.29-0.56,0.47-1.03
				c0.15-0.4,0.27-0.74,0.46-0.98C99.33,100.27,99.36,100.2,99.39,100.13z M111.21,92.97c3.08,0,6.22,1.2,8.54,3.45
				c1.01,0.95,1.9,2.09,2.67,3.41c-0.04-0.22-0.1-0.44-0.17-0.55c-0.46-0.97-1.08-1.87-1.92-2.82c-2.3-2.4-5.61-3.84-8.84-3.84h0
				c-0.04,0-0.08,0-0.12,0c-3.24,0-6.28,1.17-8.35,3.22l-0.23,0.24c-0.22,0.23-0.43,0.46-0.66,0.69c1.31-1.08,2.84-1.97,4.31-2.74
				C107.93,93.31,109.56,92.97,111.21,92.97z"/>
		</g>
		<g>
			<path d="M112.09,97.13c-1.86-0.06-3.78,0.2-5.38,1.2c-2.59,1.42-4.58,3.65-6.54,5.81c-0.09,0.6,0.89,0.79,1.31,1.12
				c1.51,0.79,3.23,1.13,4.93,1.07c3.9,0.08,7.8-0.32,11.71-0.22c1.15-0.09,2.44,0.45,3.48-0.29c0.4-0.55,0.34-1.37,0.02-1.95
				c-1.52-2.14-3.21-4.23-5.42-5.7C115,97.34,113.5,97.15,112.09,97.13L112.09,97.13z M111.74,98.32c2.68-0.08,5.23,1.41,6.82,3.51
				c0.88,0.9,1.91,1.8,2.18,3.09c-0.85,0.38-1.79-0.1-2.68-0.1c-2.72-0.28-5.46-0.13-8.14,0.37c-2.76,0.33-5.68,0.08-8.16-1.26
				c2.21-2.14,4.52-4.47,7.59-5.3C110.13,98.43,110.94,98.35,111.74,98.32L111.74,98.32z M111.74,98.32"/>
			<path d="M107.44,106.79c-0.35,0-0.7,0-1.05-0.01c-1.81,0.05-3.61-0.32-5.13-1.12c-0.16-0.12-0.33-0.2-0.49-0.28
				c-0.46-0.23-1.15-0.57-1.05-1.3l0.02-0.14l0.3-0.33c1.91-2.1,3.89-4.27,6.45-5.68c1.46-0.9,3.33-1.3,5.61-1.25
				c1.21,0.02,2.97,0.15,4.35,1.12c2.35,1.56,4.11,3.82,5.53,5.81c0.39,0.72,0.51,1.73-0.03,2.47l-0.1,0.1
				c-0.83,0.59-1.77,0.5-2.61,0.42c-0.39-0.03-0.75-0.07-1.1-0.05c-2.02-0.05-4.05,0.03-6,0.11
				C110.6,106.72,109.02,106.79,107.44,106.79z M106.39,105.88c1.91,0.04,3.85-0.04,5.72-0.11c1.97-0.08,4-0.15,6.01-0.11
				c0.37-0.03,0.79,0.01,1.21,0.05c0.75,0.08,1.4,0.14,1.94-0.21c0.25-0.41,0.17-1.02-0.05-1.42c-1.34-1.89-3.04-4.06-5.27-5.54
				c-1.18-0.82-2.68-0.95-3.86-0.96h-0.01c-2.09-0.04-3.81,0.32-5.14,1.13c-2.45,1.35-4.38,3.46-6.24,5.51l-0.06,0.06
				c0.11,0.1,0.39,0.24,0.52,0.3c0.21,0.1,0.42,0.21,0.59,0.34C103.06,105.6,104.69,105.93,106.39,105.88z M107.78,105.77
				c-2.35,0-4.48-0.49-6.24-1.44l-0.53-0.29l0.67-0.65c2.2-2.14,4.48-4.35,7.55-5.18c0.86-0.23,1.74-0.3,2.49-0.33h0.01
				c0.07,0,0.14,0,0.21,0c2.59,0,5.25,1.4,6.98,3.69l0.24,0.24c0.82,0.82,1.75,1.75,2.01,3.03l0.07,0.35l-0.33,0.15
				c-0.67,0.3-1.36,0.16-1.97,0.06c-0.31-0.06-0.61-0.11-0.88-0.11c0,0-0.01,0-0.01,0c-2.64-0.27-5.34-0.15-8.05,0.37
				C109.24,105.72,108.5,105.77,107.78,105.77z M102.51,103.82c2.56,1.19,5.38,1.18,7.35,0.94c2.78-0.53,5.56-0.65,8.23-0.37
				c0.29-0.04,0.67,0.06,1.01,0.13c0.39,0.07,0.77,0.13,1.07,0.1c-0.31-0.83-0.99-1.52-1.66-2.18l-0.29-0.29
				c-1.6-2.11-3.99-3.38-6.31-3.38c-0.06,0-0.11,0-0.17,0c-0.7,0.03-1.52,0.09-2.29,0.3C106.71,99.81,104.57,101.82,102.51,103.82z"
				/>
		</g>
		<g>
			<path d="M125.1,125.15c-0.95,0.01-2,0.64-2.1,1.65c0,0.04,0.01,0.09,0.01,0.14c-0.04,0.12-0.07,0.24-0.08,0.37
				c0.01,0.49,0.35,1.37,0.74,1.41c0.16-0.3,0.18-0.64,0.22-0.98c0,0,0-0.01,0-0.01c0.02-0.09,0.03-0.19,0.04-0.29
				c0.04-0.22,0.1-0.44,0.23-0.63c0.25-0.58,0.91-0.55,1.42-0.39c1.34,0.38,2.11,1.63,2.99,2.6c0.99,1.15,2.55,1.73,4.09,1.56
				c1.29-0.14,2.4-0.92,3.36-1.75c0.41-0.31,0.79-0.67,1.31-0.85c0.5-0.14,1.34-0.56,1.71-0.03c0.37,0.52-1.5,0.83-1.63,0.88
				c-0.12,0.06-0.56,0.35-0.17,0.57c0.38,0.22,1.54-0.06,2.06-0.32c0.82-0.47,0.63-2.05-0.13-2.28c-1.21-0.24-2.2,0-3.17,0.74
				c-1.37,1.32-3.47,2.14-5.34,1.47c-1.89-0.7-2.61-2.91-4.43-3.72c-0.3-0.1-0.62-0.14-0.94-0.14
				C125.23,125.15,125.17,125.15,125.1,125.15L125.1,125.15z M125.1,125.15"/>
			<path d="M132.16,131.06c-1.51,0-2.97-0.64-3.92-1.75c-0.18-0.2-0.37-0.42-0.56-0.65c-0.67-0.79-1.3-1.54-2.22-1.81
				c-0.27-0.09-0.75-0.18-0.88,0.13c-0.11,0.19-0.17,0.33-0.2,0.54c-0.02,0.15-0.03,0.22-0.04,0.29l0,0.01
				c-0.05,0.4-0.09,0.77-0.27,1.11l-0.14,0.27l-0.31-0.03c-0.78-0.09-1.12-1.34-1.13-1.84c0.01-0.17,0.03-0.3,0.07-0.43
				c0-0.04-0.01-0.07-0.01-0.09c0.12-1.31,1.38-2.08,2.54-2.1h0.01c0.08,0,0.16,0,0.24,0.01c0.33,0,0.7,0.05,1.03,0.16
				c1.01,0.45,1.68,1.22,2.32,1.96c0.65,0.74,1.26,1.44,2.13,1.77c1.86,0.67,3.79-0.33,4.88-1.38c1.12-0.86,2.25-1.11,3.56-0.86
				c0.56,0.17,0.94,0.7,1.01,1.39c0.08,0.74-0.21,1.4-0.74,1.71c-0.49,0.25-1.87,0.7-2.5,0.32c-0.35-0.21-0.38-0.51-0.38-0.62
				c0.01-0.14,0.06-0.25,0.12-0.35c-0.07,0.05-0.13,0.1-0.2,0.16l-0.27,0.21c-0.87,0.75-2.09,1.67-3.58,1.83
				C132.54,131.05,132.35,131.06,132.16,131.06z M124.98,125.88c0.23,0,0.48,0.04,0.74,0.13c1.17,0.33,1.92,1.22,2.64,2.09
				c0.18,0.22,0.36,0.43,0.55,0.63c0.89,1.04,2.33,1.56,3.71,1.43c1.24-0.14,2.32-0.95,3.11-1.64l0.28-0.22
				c0.32-0.26,0.7-0.56,1.18-0.72c0.11-0.03,0.2-0.06,0.3-0.09c0.5-0.17,1.32-0.45,1.83,0.11c-0.07-0.18-0.17-0.31-0.27-0.34
				c-1.02-0.19-1.9,0.01-2.77,0.67c-1.63,1.58-3.91,2.19-5.76,1.54c-1.09-0.41-1.8-1.23-2.49-2.02c-0.61-0.7-1.18-1.36-1.97-1.71
				c-0.2-0.06-0.47-0.1-0.76-0.1c-0.1-0.01-0.15,0-0.19-0.01c-0.74,0.01-1.59,0.49-1.66,1.25l0.01,0.09l-0.01,0.16
				c-0.03,0.09-0.05,0.17-0.06,0.26c0,0.11,0.03,0.24,0.07,0.37l0.05-0.35c0.06-0.32,0.15-0.58,0.3-0.8
				C123.98,126.13,124.41,125.88,124.98,125.88z"/>
		</g>
		<g>
			<path d="M124.33,117.12c-1.05,0.6-2.04,1.36-2.88,2.25c-1.24,1.16-2.22,2.58-2.75,4.2c-0.77,1.75-0.88,3.95,0.24,5.57
				c0.57,0.8,1.45,1.34,2.37,1.64c0.78,0.21,1.61,0.09,2.39-0.05c0.59-0.15,1.24-0.38,1.6-0.88c0.01-0.02,0.03-0.04,0.03-0.06
				c0.17-0.11,0.33-0.25,0.45-0.42c0.27-0.4-0.22-0.77-0.48-0.32c-1.42,0.7-3.29,0.85-4.62-0.13c-0.93-0.65-1.36-1.91-1.4-2.96
				c-0.11-1.99,0.93-3.9,2.13-5.45c0.34-0.46,0.7-0.88,1.08-1.27c0.23-0.22,0.46-0.43,0.71-0.63c0.32-0.23,0.72-0.35,0.75-0.65
				c0.32-0.18,0.6-0.34,0.44-0.72l-0.02-0.06L124.33,117.12z M124.33,117.12"/>
			<path d="M122.23,131.34c-0.34,0-0.7-0.03-1.04-0.13c-0.81-0.26-1.9-0.79-2.63-1.82c-1.31-1.9-1.01-4.35-0.28-6.01
				c0.51-1.57,1.5-3.08,2.86-4.35c0.82-0.87,1.82-1.65,2.96-2.31l0.43-0.25l0.22,0.51c0.3,0.69-0.12,1.05-0.45,1.25
				c-0.13,0.28-0.4,0.44-0.62,0.56c-0.08,0.05-0.17,0.1-0.24,0.15c-0.22,0.17-0.45,0.37-0.66,0.58c-0.36,0.38-0.7,0.79-1.03,1.22
				c-1.44,1.87-2.13,3.6-2.03,5.16c0.03,0.85,0.37,2.03,1.21,2.62c1.25,0.92,2.95,0.65,4.07,0.14c0.16-0.2,0.38-0.33,0.61-0.3
				c0.26,0,0.49,0.15,0.61,0.39c0.13,0.26,0.11,0.57-0.07,0.83c-0.14,0.19-0.3,0.35-0.49,0.49c-0.46,0.64-1.23,0.9-1.85,1.06
				C123.31,131.25,122.78,131.34,122.23,131.34z M119.73,122.28c-0.25,0.46-0.46,0.94-0.61,1.42c-0.64,1.48-0.92,3.59,0.18,5.18
				c0.58,0.82,1.49,1.26,2.15,1.47c0.69,0.18,1.49,0.06,2.18-0.07c0.39-0.1,0.89-0.26,1.2-0.57c-1.58,0.55-3.25,0.4-4.41-0.45
				c-1.1-0.77-1.54-2.22-1.58-3.3C118.77,124.81,119.07,123.57,119.73,122.28z"/>
		</g>
		<g>
			<path d="M126.61,136.37c-3.09,0.09-5.68,2.05-7.93,3.98c-0.88,0.69-1.66,1.52-2.61,2.08c-0.96,0.39-2.29,1.13-2.58,1.74
				c-0.19,0.9,0.93,1.11,1.66,1.18c2.56,0.36,5.16-0.11,7.61-0.8c1.1-0.27,2.17-0.64,3.34-0.67c3.32,0.53,6.69,0.63,10.04,0.5
				c2.55-0.34,4.92,1.15,7.48,0.95c1.22-0.06,2.33-0.22,2.96-1.43c0.17-0.36,0.15-0.32,0.21-0.7c-1.3,0.28-2.24,0.06-3.32-0.74
				c-1.96-1.33-3.15-3.5-5.16-4.77c-1.51-1.1-3.61-1.62-5.35-0.74c-0.68,0.46-1.49,0.77-2.32,0.56
				C129.26,137.28,128.03,136.37,126.61,136.37L126.61,136.37z M127.06,137.63c0.82,0.11,1.96,0.67,2.79,0.82
				c1.49,0.43,2.88,0.26,4.11-0.75c1.9-0.37,4.22,0.8,5.44,2.13c1.07,1.07,1.91,2.55,3.07,3.5c0.22,0.07,1.84,0.88,1.24,0.83
				c-1.24-0.15-3.25-0.85-4.52-0.93c-2.82-0.41-5.67,0.4-8.48-0.08c-3.61-1.08-7.45-0.35-10.94,0.8c-1.04,0.22-3.2,0.67-4.2,0.32
				c1.96-1.34,4.22-3.34,6.06-4.83C123.12,138.35,125.19,137.46,127.06,137.63L127.06,137.63z M127.06,137.63"/>
			<path d="M116.98,145.92c-0.65,0-1.28-0.04-1.9-0.13c-0.93-0.08-1.54-0.33-1.85-0.75c-0.2-0.27-0.26-0.61-0.18-0.96
				c0.42-0.91,1.98-1.71,2.85-2.06c0.52-0.31,1.03-0.76,1.58-1.24c0.3-0.26,0.61-0.53,0.93-0.78c2.25-1.91,4.94-3.98,8.19-4.07h0.01
				c0.89,0,1.69,0.32,2.46,0.62c0.56,0.22,1.09,0.43,1.64,0.52c0.61,0.16,1.28-0.01,1.99-0.49c2.12-1.08,4.4-0.32,5.86,0.75
				c1.06,0.67,1.91,1.6,2.73,2.5c0.77,0.85,1.5,1.65,2.41,2.26c1.01,0.74,1.82,0.91,2.97,0.67l0.63-0.14l-0.11,0.75
				c-0.05,0.32-0.07,0.36-0.23,0.71c-0.75,1.45-2.06,1.63-3.35,1.69c-1.28,0.09-2.53-0.21-3.72-0.5c-1.27-0.32-2.47-0.62-3.71-0.45
				c-3.78,0.15-7.1-0.02-10.17-0.51c-0.78,0.03-1.59,0.25-2.44,0.47c-0.24,0.07-0.48,0.13-0.73,0.19
				C120.64,145.61,118.73,145.92,116.98,145.92z M126.62,136.81c-2.97,0.09-5.5,2.04-7.65,3.87c-0.32,0.25-0.61,0.51-0.9,0.76
				c-0.55,0.48-1.12,0.98-1.77,1.36c-1.17,0.48-2.22,1.16-2.4,1.55c0,0.04,0.03,0.11,0.06,0.15c0.07,0.09,0.32,0.31,1.23,0.4
				c2.14,0.29,4.5,0.05,7.45-0.79c0.25-0.06,0.49-0.13,0.73-0.19c0.87-0.23,1.76-0.47,2.73-0.5c3.1,0.49,6.34,0.66,10.03,0.5
				c1.37-0.19,2.71,0.15,4,0.47c1.18,0.3,2.29,0.58,3.45,0.48c1.33-0.06,2.1-0.26,2.58-1.15c-1.09,0.09-1.98-0.2-2.96-0.93
				c-0.98-0.66-1.78-1.54-2.55-2.39c-0.82-0.9-1.6-1.74-2.58-2.37c-1.21-0.88-3.19-1.59-4.9-0.72c-0.89,0.61-1.79,0.81-2.63,0.6
				c-0.61-0.1-1.2-0.33-1.78-0.56C128.02,137.09,127.34,136.82,126.62,136.81z M116.56,144.85c-0.43,0-0.83-0.04-1.14-0.15
				l-0.82-0.3l0.72-0.49c1.4-0.96,2.94-2.24,4.42-3.47c0.56-0.47,1.1-0.92,1.61-1.34c1.84-1.37,4.03-2.09,5.75-1.91h0.01
				c0.48,0.06,1.04,0.26,1.57,0.45c0.44,0.15,0.89,0.31,1.24,0.37c1.49,0.42,2.7,0.21,3.75-0.65l0.2-0.09
				c2.08-0.41,4.57,0.87,5.85,2.27c0.47,0.46,0.9,1.02,1.33,1.56c0.51,0.66,1.05,1.35,1.65,1.85c0.38,0.14,1.7,0.69,1.58,1.28
				c-0.02,0.07-0.12,0.37-0.61,0.39c-0.6-0.07-1.31-0.25-2.07-0.44c-0.87-0.22-1.78-0.45-2.43-0.48c-1.37-0.2-2.74-0.1-4.07-0.02
				c-1.46,0.09-2.97,0.18-4.46-0.07c-3.01-0.89-6.4-0.64-10.73,0.79C119.02,144.57,117.66,144.85,116.56,144.85z M126.58,138.06
				c-1.7,0-3.51,0.87-4.68,1.74c-0.49,0.4-1.03,0.85-1.59,1.31c-1.17,0.98-2.38,1.98-3.53,2.85c0.98-0.04,2.22-0.3,2.86-0.43
				c4.5-1.48,8.06-1.74,11.2-0.8c1.34,0.23,2.73,0.14,4.2,0.05c1.38-0.09,2.8-0.18,4.21,0.02c0.69,0.04,1.6,0.27,2.5,0.49
				c-0.51-0.5-0.97-1.08-1.41-1.65c-0.42-0.54-0.82-1.05-1.26-1.49c-1.13-1.23-3.27-2.3-4.94-2.03c-1.25,0.99-2.75,1.25-4.42,0.76
				c-0.38-0.06-0.87-0.23-1.34-0.4c-0.49-0.17-0.99-0.35-1.38-0.4C126.87,138.07,126.72,138.06,126.58,138.06z"/>
		</g>
		<g>
			<path d="M141.95,146.23c-1.68,1.68-3.67,3.48-6.18,3.57c-1.23-0.04-2.44-0.38-3.68-0.36c-3.22-0.11-6.51,0.47-9.68-0.33
				c-0.61-0.21-1.4-0.37-2.02-0.7c-1-0.55-1.82-1.73-3.07-1.64c-0.44,0.05-0.76,0.4-1.09,0.67c1.46,1.67,3.47,2.39,5.62,2.86
				c3.04,0.66,6.07,0.53,9.11,0.47c2.93-0.06,6.9,0.25,8.75-0.8c1.13-0.74,1.56-0.84,2.43-1.86c0.53-0.54,1.07-1.68,0.33-1.94
				C142.23,145.97,142.15,145.97,141.95,146.23L141.95,146.23z M141.95,146.23"/>
			<path d="M127.67,151.26c-1.95,0-3.93-0.1-5.91-0.53c-1.98-0.43-4.22-1.12-5.85-3l-0.3-0.34l0.53-0.44
				c0.29-0.25,0.65-0.56,1.15-0.62c1.07-0.04,1.81,0.54,2.48,1.07c0.3,0.24,0.58,0.46,0.86,0.62c0.38,0.2,0.86,0.34,1.32,0.47
				c0.22,0.06,0.43,0.13,0.62,0.19c2.03,0.51,4.2,0.43,6.32,0.35c1.05-0.03,2.15-0.08,3.23-0.05c0.05,0,0.09,0,0.13,0
				c0.66,0,1.31,0.09,1.95,0.19c0.55,0.08,1.06,0.16,1.59,0.17c2.29-0.09,4.21-1.81,5.83-3.42c0.32-0.41,0.66-0.45,1.08-0.18
				c0.3,0.13,0.5,0.36,0.57,0.67c0.16,0.7-0.39,1.57-0.79,1.99c-0.67,0.79-1.14,1.07-1.78,1.46c-0.21,0.13-0.45,0.27-0.72,0.46
				c-1.59,0.9-4.36,0.9-7.04,0.87c-0.68,0-1.34-0.01-1.94,0.01l-0.77,0.02C129.38,151.24,128.53,151.26,127.67,151.26z
				 M116.89,147.47c1.44,1.44,3.36,2.02,5.06,2.39c2.74,0.6,5.53,0.53,8.25,0.47l0.76-0.02c0.63-0.01,1.29-0.01,1.97-0.01
				c2.45,0.02,5.21,0.03,6.58-0.74c0.26-0.18,0.51-0.32,0.72-0.46c0.63-0.39,0.98-0.6,1.59-1.31c0.39-0.4,0.63-0.97,0.58-1.18
				l-0.13-0.08c-1.74,1.74-3.82,3.6-6.48,3.7c-0.61-0.02-1.18-0.1-1.72-0.18c-0.67-0.09-1.29-0.18-1.96-0.18
				c-1.09-0.04-2.16,0.01-3.2,0.05c-2.17,0.07-4.42,0.16-6.6-0.39c-0.22-0.07-0.42-0.13-0.62-0.19c-0.48-0.14-1.03-0.3-1.49-0.55
				c-0.37-0.2-0.69-0.46-1-0.71c-0.57-0.46-1.11-0.88-1.74-0.88c-0.03,0-0.07,0-0.1,0C117.21,147.23,117.06,147.33,116.89,147.47z"
				/>
		</g>
		<g>
			<path d="M104.14,46.11c-2.64,0.1-5.26,1.17-7.09,3.09c-1.86,1.29-2.23,3.68-3.15,5.6c-0.35,0.7-0.83,1.37-1.52,1.78
				c-1.88-0.66-3.67,0.65-5.54,0.58c-2.21-0.48-4.71,0.36-5.97,2.28c-0.57,0.82-0.77,1.82-0.74,2.8c-0.04,1.15-0.83,2.36-2.08,2.4
				c-1.01,0.29-1.44,1.38-1.44,2.35c-0.02,0.53-0.1,1.28-0.77,1.34c-2.17,0.73-3.42,3.1-3.26,5.31c-0.06,0.7,0.44,1.38,0.19,2.06
				c-0.63,0.77-1.78,1.12-2.12,2.14c-0.17,1.25,0.54,2.5,0.17,3.73c-0.4,0.64-1.32,0.43-1.89,0.85c-2.75,1.41-3.29,5.61-1.12,7.76
				c-1.09,2.01-1.25,4.53-0.25,6.6c0.55,1.64,2.39,2.34,3.09,3.87c0.32,0.82-0.43,1.38-0.86,1.95c-1.47,1.88-2.26,4.57-1.16,6.8
				c0.53,1.63,2.06,2.87,2.12,4.65c-0.34,1.26-0.76,2.53-0.76,3.85c-0.11,2.31,0.73,4.77,2.59,6.23c0.33,2.03,2.17,3.27,3.7,4.41
				c0.5,0.49,1.44,1.06,2.02,0.38c0.43-0.55,0.41-1.26,0.74-1.85c0.91,3.31,1.34,6.72,2.25,10.02c0.75,2.68,2.07,5.48,4.62,6.86
				c1.28,0.57,2.95,0.61,4.08-0.31c0.41,1.52,0.6,3.26,1.24,4.8c0.53,2.14,2.15,3.96,2.06,6.25c1.17,8.74,2.85,17.4,4.99,25.96
				c-0.14,0.99,1.59,1.5,1.83,0.44c-0.1-0.97-0.5-1.92-0.69-2.88c-1.47-5.98-2.67-11.95-3.63-18.03c-0.12-0.9-0.23-1.71-0.31-2.6
				c1.79,2.84,3.8,5.59,6.37,7.78c4.31,4.8,10.02,8.18,16.02,10.44c4.01,1.48,8.33,2.26,12.61,1.89c7.2-0.45,14.28-3.04,19.99-7.46
				c0.85-1.26,2.5-1.83,3.14-3.25c0.24-0.61-0.25-1.13-0.72-1.45c-5.22,5.93-12.85,9.28-20.54,10.39
				c-4.74,0.16-9.69,0.18-14.12-1.73c-6.13-2.49-11.97-6.08-16.43-11.06c-3.49-3.88-6.45-8.23-8.14-13.2
				c-2.03-4.66-2.57-9.85-3.15-14.92c-0.88-8.19-1.81-16.38-2.61-24.57c-0.05-0.9-0.23-1.82-0.2-2.71
				c1.88-3.47,2.75-7.43,2.84-11.36c1.41-1.93,1.12-4.44,1.21-6.7c0.01-1.65,0.58-3.28,1.64-4.55c1.42-1.87,3.33-3.49,4.02-5.81
				c-0.32-0.7-0.05-1.51,0.61-1.9c1.07-0.69,2.25-1.2,3.15-2.13c3.65-3.19,6.88-7.05,11.33-9.16c1-0.44,2.05-0.89,3.14-1
				c1.07,0.06,2.38,0.29,3.2-0.57c0.61-0.74,0.16-1.71-0.06-2.49c-0.39-4.46-1.84-9.07-5.1-12.27c-2.31-2.18-5.39-3.62-8.6-3.71
				C104.76,46.09,104.45,46.09,104.14,46.11L104.14,46.11z M104.5,47.99c1.33-0.04,2.69,0.06,3.92,0.61
				c3.66,1.45,6.32,4.78,7.59,8.43c0.54,1.47,0.73,3.08,0.83,4.59c-2.18-1.6-5.05-1.81-7.66-1.59c-1.83-0.02-3.15-1.6-3.82-3.15
				c-1.13-2.09-2.58-4.35-4.97-5.13c-0.95-0.33-1.95-0.18-2.93-0.11c-0.22-0.14,0.35-0.6,0.51-0.82c1.17-1.2,2.52-2.36,4.24-2.62
				C102.97,48.05,103.73,48,104.5,47.99L104.5,47.99z M98.28,53.09c2.11,0.07,3.69,1.74,4.71,3.44c0.82,1.23,1.42,2.63,2.38,3.76
				c1.64,1.53,4.02,1.49,6.12,1.56c1.59,0.04,3.43,0.26,4.53,1.5c-1.34,0.28-2.92,0.09-3.99,1.09c-1.08,0.77-2.44,0.17-3.39-0.53
				c-0.76-0.45-1.4-1.23-2.35-1.22c-2.44-0.33-4.92,0.49-7.32-0.24c-1.38-1.57-2.38-3.74-4.52-4.41c-0.23-0.14-1.15-0.1-0.63-0.44
				c0.84-0.71,2-1.45,1.94-2.69C95.91,53.68,97.15,53.03,98.28,53.09L98.28,53.09z M90.81,58.18c0.63-0.02,0.9,0.61,0.92,1.14
				c1.62-0.22,3.11,0.74,4.07,1.97c0.77,0.82,1.04,2.05,2.08,2.62c1.87,1.1,4.11,0.51,6.15,0.47c0.67-0.08,1.39-0.31,2.03,0.06
				c0.99,0.45,1.77,1.26,2.77,1.71c-1.1,0.99-2.44,1.68-3.71,2.41c-1.37,0.68-3.15,0.37-4.14-0.82c-1.65-1.6-4.21-1.61-6.29-1
				c-0.67,0.11-1.32,0.68-2,0.3c-1.69-0.77-2.32-2.66-3.33-4.07c-0.32-0.62-1.02-1.06-1.73-0.94c-0.73,0.36-0.28,1.26,0.02,1.76
				c0.64,1.11,1.43,2.13,2.1,3.22c1.26,1.76,3.83,2.34,5.73,1.29c1.45-0.67,3.18-0.12,4.35,0.83c0.93,1.14,2.47,1.34,3.84,1.45
				c-2.78,2.55-5.67,5.19-9.24,6.64c-0.65,0.37-1.39,0.45-2.11,0.43c-1.88,0.19-3.91,0.08-5.73-0.43c-1.32-0.4-2.64-0.88-3.78-1.66
				c-2.25-1.67-3.09-5.06-1.63-7.51c1.05-2.05,2.78-3.64,4.54-5.07c1.09-1.07,1.51-2.63,2.62-3.68
				C88.88,58.55,89.89,58.14,90.81,58.18L90.81,58.18z M86.27,58.63c0.46,0.05-0.11,0.62-0.19,0.81c-0.6,0.89-1.17,1.81-1.99,2.52
				c-0.89,0.84-1.89,1.67-2.71,2.52c0.13-1.87,0.48-4.07,2.22-5.13C84.4,58.92,85.34,58.57,86.27,58.63L86.27,58.63z M80.27,65.92
				c-0.33,0.49-0.53,1.07-0.69,1.61c-0.34,0.3-1.09,0.47-1.39,0.05c0-0.56,0.15-1.21,0.77-1.39c0.52-0.24,1.1-0.37,1.58-0.7
				C80.46,65.64,80.37,65.78,80.27,65.92L80.27,65.92z M78.5,69.46c0.64,0.01,0.31,0.78,0.31,1.16c-0.26,3.04,1.58,6.19,4.49,7.24
				c3.46,1.49,7.47,2.37,11.14,1.11c0.39-0.2,0.81-0.46,1.26-0.42c-0.02,0.96-0.83,1.81-1.77,2c-2.2,0.52-4.62-0.47-6.7,0.67
				c-0.74,0.52-1.65,1.04-2.58,0.69c-1.53-0.57-2.55-1.94-3.6-3.12c-1.18-1.84-3.53-2.3-4.93-3.9c-0.41-1.24-1.2-2.56-0.77-3.9
				c0.62-0.98,1.86-1.47,2.99-1.55l0.08,0H78.5z M74.45,75.6c1.04,1.65,2.9,2.44,4.47,3.45c1.53,1.72,2.89,3.91,5.23,4.59
				c0.93,0.21,2.03,0.29,2.81-0.33c1.88-1.01,4.07-0.66,6.12-0.77c-0.85,1.24-2.21,2.24-2.4,3.82c-0.53,2.11-0.7,4.55-2.34,6.17
				c-1.54,1.39-3.82,1.58-5.74,1.2c-1.3-0.28-2.31-1.33-3.05-2.39c-0.94-1.39-1.23-3.08-1.17-4.73c-0.16-3.12-2.6-5.43-3.48-8.32
				C74.66,77.49,74.62,76.42,74.45,75.6L74.45,75.6z M73.02,78.01c0.33,3.12,3.09,5.3,3.54,8.37c0.03,1.34,0.04,2.7,0.51,3.97
				c0.45,1.35,1.21,2.6,2.25,3.57c-1.2-0.48-2.48,0.08-3.7-0.23c-2.51-0.4-4.65-2.09-6.01-4.18c-1.05-1.06-1.87-2.85-0.94-4.24
				c0.48-1.3,2.05-1.41,3.08-2.09c0.99-0.52,1.33-1.81,0.85-2.8c-0.22-0.79-0.48-1.89,0.21-2.51
				C72.98,77.79,73.03,77.74,73.02,78.01L73.02,78.01z M69.02,91.73c1.33,0.84,2.1,2.48,3.7,2.9c1.83,1.23,4.13,0.49,6.14,1.02
				c0.74,0.18,1.29,0.73,1.76,1.28c0.82,0.66,2.02,0.8,2.83,1.32c-0.97,0.73-2.11,1.21-3.31,1.39c-2.07,0.36-4.53,0.41-6.23,1.93
				c-1.47,1.13-3,2.42-3.77,4.13c0.35-1.12,1.04-2.1,1.84-2.95c0.97-1.31,0.42-3.13-0.55-4.28c-0.81-0.96-1.91-1.7-2.41-2.9
				C68.44,94.4,68.24,92.87,69.02,91.73L69.02,91.73z M89.8,93.72c-0.31,0.87-0.81,1.9-1.76,2.18c-0.54,0.33-1.12,0.69-1.8,0.66
				c-0.87,0.01-1.78,0.31-2.61-0.11c-0.63-0.25-1.19-0.64-1.74-1.03c2.73,0.88,5.95,0.22,7.95-1.87
				C89.83,93.61,89.81,93.66,89.8,93.72L89.8,93.72z M88.78,97.59c-0.26,3.45-1.21,6.88-3,9.87c-0.94,1.54-2.02,3.03-3.38,4.21
				c-1.74,1.38-4.07,1.72-6.23,1.48c-1.22,0.07-2.48-0.14-3.68,0.18c-0.17-1.25,0.1-2.76-0.85-3.77c-0.85-1.58,0.07-3.43,1.17-4.63
				c1.13-1.39,2.63-2.47,4.36-3c1.43-0.52,2.96-0.58,4.46-0.71c1.72-0.35,2.82-1.84,4.23-2.73c1.07,0.11,1.95-0.66,2.92-0.96
				L88.78,97.59z M86.17,110.74c0.33,1.91,0.49,4.2-0.97,5.71c-0.84,0.9-1.65,1.89-2.84,2.35c-0.97,0.46-2.07,0.44-3.1,0.31
				c-1.88,0.24-3.95-0.59-5.67,0.49c-0.53,0.32-0.95,0.78-1.21,1.34c-0.74-1.58-1.07-3.67,0.07-5.15c1.24-1.35,3.29-1.29,4.95-0.96
				c2.87,0.43,5.67-1.06,7.56-3.13c0.41-0.45,0.8-0.91,1.15-1.42C86.11,110.44,86.14,110.59,86.17,110.74L86.17,110.74z
				 M86.85,117.33c0.22,1.77,0.03,3.86-1.41,5.11c-1.48,1.09-3.36,1.02-5.05,1.57c-1.15,0.36-2.3,1.01-2.92,2.06
				c-0.22,0.21-0.13,1.1-0.52,0.76c-1.53-1.02-2.87-2.6-3.09-4.48c-0.02-1.26,1.42-1.75,2.47-1.77c1.39-0.11,2.69,0.61,4.08,0.45
				C82.98,120.9,85.41,119.41,86.85,117.33L86.85,117.33z M87.57,122.84c0.22,1.71,0.16,3.45,0.43,5.16
				c0.39,3.35,0.77,6.7,1.18,10.05c0.15,1.24,0.63,2.66-0.1,3.81c-0.36,0.41-0.89,0.69-1.41,0.8c-0.71-0.12-1.29-0.64-1.93-0.94
				c-2.59-2.9-3.32-6.85-4.03-10.55c-0.32-1.74-0.68-3.5-1.19-5.19c1.32-0.79,2.95-0.79,4.36-1.21c-0.27,2.04,0.85,3.89,1.38,5.76
				c0.15,1.35-1.15,2.16-1.98,2.99c-0.53,0.47-0.55,0.78,0.21,0.86c1.09,0.44,2.34-0.19,2.82-1.22c0.49-0.93,0.78-2.02,0.74-3.06
				c-0.88-2.1-1.81-4.53-0.88-6.77C87.24,123.21,87.54,122.35,87.57,122.84L87.57,122.84z M87.57,122.84"/>
			<path d="M99.35,182.12c-0.09,0-0.19-0.01-0.29-0.03c-0.66-0.12-1.29-0.68-1.24-1.42c-2.16-8.71-3.84-17.43-4.97-25.93
				c0.05-1.36-0.5-2.5-1.07-3.7c-0.38-0.8-0.77-1.62-0.98-2.5c-0.41-0.98-0.64-2.08-0.86-3.15c-0.07-0.35-0.15-0.7-0.23-1.04
				c-1.13,0.6-2.62,0.61-3.98,0c-2.28-1.24-3.87-3.57-4.87-7.14c-0.47-1.68-0.81-3.41-1.15-5.08c-0.23-1.16-0.47-2.34-0.74-3.51
				c-0.08,0.19-0.18,0.39-0.32,0.57c-0.26,0.31-0.58,0.47-0.95,0.49c-0.02,0-0.05,0-0.07,0c-0.74,0-1.41-0.57-1.66-0.82l-0.24-0.17
				c-1.48-1.1-3.15-2.34-3.56-4.32c-1.77-1.47-2.75-3.88-2.63-6.5c0-1.18,0.32-2.33,0.63-3.43l0.12-0.45
				c-0.05-0.91-0.54-1.68-1.06-2.5c-0.39-0.61-0.8-1.25-1.03-1.97c-1.26-2.54-0.13-5.48,1.23-7.21c0.09-0.11,0.19-0.24,0.3-0.37
				c0.45-0.51,0.64-0.79,0.5-1.15c-0.28-0.62-0.81-1.11-1.37-1.63c-0.69-0.64-1.39-1.29-1.72-2.27c-0.96-1.99-0.91-4.53,0.13-6.67
				c-0.99-1.14-1.43-2.75-1.17-4.39c0.26-1.72,1.22-3.12,2.63-3.84c0.26-0.2,0.63-0.27,0.95-0.34c0.36-0.08,0.59-0.14,0.73-0.31
				c0.15-0.55,0.04-1.15-0.07-1.77c-0.1-0.58-0.21-1.19-0.13-1.82c0.27-0.83,0.87-1.27,1.4-1.66c0.29-0.21,0.56-0.41,0.77-0.64
				c0.06-0.24-0.01-0.52-0.09-0.83c-0.08-0.31-0.17-0.67-0.14-1.05c-0.18-2.51,1.31-4.94,3.56-5.69c0.27-0.04,0.44-0.16,0.47-0.94
				c0-1.03,0.46-2.38,1.76-2.75l0.11-0.02c0.99-0.03,1.61-1.03,1.65-1.97c-0.03-1.17,0.25-2.23,0.82-3.04c1.3-1.98,3.96-3,6.43-2.46
				c0.65,0.04,1.33-0.17,2.07-0.38c1.06-0.29,2.16-0.58,3.31-0.25c0.46-0.32,0.85-0.82,1.19-1.49c0.24-0.51,0.45-1.05,0.66-1.63
				c0.58-1.53,1.17-3.12,2.63-4.14c1.79-1.89,4.48-3.07,7.33-3.17c0.31-0.01,0.63-0.02,0.95-0.01c3.16,0.09,6.41,1.49,8.9,3.83
				c3.75,3.68,4.92,8.86,5.24,12.56l0.08,0.25c0.23,0.73,0.55,1.74-0.12,2.56c-0.88,0.93-2.14,0.83-3.16,0.76l-0.41-0.03
				c-0.96,0.1-1.96,0.54-2.94,0.96c-3.2,1.52-5.82,4.01-8.36,6.43c-0.93,0.88-1.89,1.8-2.86,2.65c-0.64,0.67-1.46,1.14-2.24,1.6
				c-0.32,0.18-0.64,0.37-0.95,0.57c-0.49,0.29-0.68,0.86-0.45,1.34l0.07,0.15l-0.05,0.16c-0.53,1.77-1.72,3.14-2.86,4.47
				c-0.42,0.49-0.85,0.98-1.23,1.49c-0.99,1.2-1.54,2.72-1.55,4.28c-0.02,0.42-0.02,0.83-0.02,1.25c-0.01,1.93-0.03,3.92-1.19,5.59
				c-0.11,4.15-1.09,8.06-2.84,11.33c-0.01,0.48,0.05,0.97,0.1,1.49c0.04,0.36,0.08,0.72,0.1,1.07c0.57,5.79,1.21,11.7,1.84,17.41
				c0.26,2.38,0.52,4.75,0.78,7.13l0.05,0.43c0.55,4.87,1.12,9.89,3.07,14.36c1.51,4.45,4.14,8.72,8.06,13.08
				c4.05,4.52,9.52,8.21,16.26,10.95c4.31,1.86,9.05,1.87,13.94,1.7c8.25-1.2,15.45-4.84,20.21-10.25l0.26-0.29l0.32,0.22
				c0.83,0.55,1.16,1.29,0.89,1.98c-0.41,0.91-1.13,1.47-1.83,2.03c-0.52,0.41-1.02,0.81-1.36,1.31l-0.1,0.1
				c-5.69,4.41-12.88,7.08-20.23,7.55c-4.08,0.33-8.39-0.3-12.79-1.92c-6.75-2.55-12.2-6.1-16.2-10.56c-2.23-1.89-4-4.19-5.38-6.25
				c0.03,0.24,0.06,0.47,0.1,0.72c0.97,6.13,2.16,12.02,3.62,17.98c0.08,0.41,0.19,0.8,0.3,1.18c0.16,0.57,0.33,1.16,0.39,1.77
				l0.01,0.07l-0.01,0.07C100.42,181.76,99.94,182.12,99.35,182.12z M90.24,142.86l0.18,0.66c0.15,0.54,0.26,1.11,0.39,1.69
				c0.21,1.03,0.43,2.09,0.83,3.05c0.22,0.86,0.57,1.61,0.95,2.4c0.59,1.25,1.21,2.54,1.15,4.04c1.13,8.41,2.8,17.13,4.97,25.83
				l0.02,0.08l-0.01,0.09c-0.04,0.28,0.27,0.47,0.51,0.51c0.21,0.03,0.37-0.01,0.43-0.17c-0.06-0.5-0.2-1-0.35-1.53
				c-0.12-0.41-0.24-0.82-0.32-1.24c-1.46-5.96-2.66-11.88-3.63-18.04c-0.13-0.91-0.23-1.73-0.32-2.63l-0.18-1.87l1,1.59
				c1.47,2.33,3.51,5.31,6.28,7.68c3.94,4.39,9.28,7.86,15.89,10.36c4.27,1.58,8.47,2.21,12.42,1.86c7.16-0.45,14.15-3.05,19.7-7.32
				c0.41-0.59,0.97-1.03,1.51-1.45c0.64-0.51,1.25-0.99,1.56-1.68c0.09-0.23-0.07-0.47-0.26-0.65c-4.9,5.39-12.17,9.02-20.52,10.23
				c-5.04,0.17-9.9,0.16-14.36-1.77c-6.86-2.79-12.44-6.55-16.58-11.17c-4-4.46-6.69-8.82-8.23-13.36
				c-1.99-4.55-2.56-9.65-3.12-14.58l-0.05-0.43c-0.26-2.38-0.52-4.75-0.78-7.13c-0.63-5.72-1.27-11.63-1.84-17.44
				c-0.02-0.36-0.06-0.7-0.1-1.04c-0.06-0.57-0.13-1.15-0.11-1.73l0.05-0.19c1.74-3.2,2.7-7.05,2.79-11.15l0-0.14l0.08-0.11
				c1.07-1.46,1.08-3.36,1.1-5.19c0-0.42,0.01-0.85,0.02-1.26c0.01-1.76,0.63-3.47,1.74-4.82c0.39-0.51,0.82-1.01,1.26-1.51
				c1.1-1.27,2.14-2.47,2.64-3.99c-0.31-0.86,0.04-1.83,0.86-2.31c0.31-0.2,0.64-0.39,0.98-0.58c0.77-0.44,1.49-0.86,2.08-1.47
				c0.99-0.87,1.94-1.77,2.86-2.65c2.59-2.47,5.27-5.02,8.6-6.6c1-0.43,2.12-0.92,3.28-1.04l0.49,0.02
				c0.92,0.08,1.86,0.14,2.42-0.46c0.32-0.39,0.18-0.93-0.06-1.7l-0.11-0.35c-0.32-3.63-1.44-8.59-4.99-12.08
				c-2.32-2.19-5.35-3.5-8.3-3.58c-0.3-0.01-0.59,0-0.89,0.01h0c-2.62,0.1-5.09,1.17-6.79,2.95c-1.3,0.91-1.83,2.31-2.38,3.78
				c-0.21,0.57-0.43,1.16-0.7,1.71c-0.45,0.91-1.02,1.57-1.69,1.97l-0.18,0.11l-0.2-0.07c-0.97-0.35-1.95-0.08-2.99,0.21
				c-0.78,0.22-1.58,0.41-2.42,0.4c-2.21-0.47-4.47,0.38-5.58,2.08c-0.47,0.67-0.7,1.54-0.67,2.54c-0.05,1.36-0.97,2.77-2.45,2.86
				c-0.79,0.26-1.07,1.18-1.07,1.9c-0.02,0.43-0.07,1.68-1.18,1.78c-1.74,0.59-3.01,2.68-2.85,4.83c-0.02,0.3,0.05,0.55,0.11,0.81
				c0.11,0.43,0.24,0.91,0.05,1.43l-0.07,0.13c-0.29,0.35-0.64,0.61-0.99,0.86c-0.48,0.35-0.9,0.65-1.06,1.14
				c-0.05,0.41,0.05,0.92,0.14,1.46c0.13,0.73,0.26,1.48,0.03,2.25l-0.05,0.11c-0.33,0.53-0.88,0.65-1.33,0.74
				c-0.26,0.06-0.51,0.11-0.67,0.23c-1.21,0.63-1.99,1.79-2.22,3.22c-0.23,1.48,0.2,2.92,1.14,3.86l0.24,0.24l-0.16,0.29
				c-1.05,1.94-1.14,4.32-0.24,6.2c0.28,0.81,0.87,1.36,1.5,1.95c0.6,0.56,1.22,1.13,1.59,1.93c0.36,0.93-0.22,1.59-0.65,2.08
				c-0.09,0.11-0.19,0.21-0.27,0.32c-1.2,1.53-2.21,4.11-1.11,6.34c0.22,0.67,0.58,1.23,0.96,1.82c0.58,0.9,1.17,1.83,1.21,3.02
				l-0.01,0.13l-0.15,0.52c-0.29,1.05-0.59,2.14-0.59,3.22c-0.11,2.41,0.79,4.6,2.42,5.88l0.14,0.11l0.03,0.17
				c0.29,1.73,1.79,2.84,3.24,3.92l0.28,0.21c0.42,0.4,0.83,0.67,1.12,0.6c0.12,0,0.21-0.05,0.3-0.16c0.17-0.23,0.26-0.53,0.35-0.86
				c0.08-0.3,0.17-0.62,0.34-0.92l0.53-0.95l0.29,1.05c0.46,1.66,0.8,3.36,1.12,5c0.33,1.66,0.68,3.37,1.13,5.02
				c0.94,3.33,2.38,5.48,4.41,6.59c1.03,0.46,2.56,0.57,3.59-0.27L90.24,142.86z M87.67,143.11l-0.09-0.01
				c-0.55-0.09-1-0.37-1.44-0.63c-0.2-0.12-0.4-0.24-0.6-0.34l-0.14-0.11c-2.65-2.95-3.39-6.86-4.11-10.64l-0.02-0.12
				c-0.29-1.57-0.66-3.41-1.18-5.15l-0.1-0.33l0.3-0.18c0.92-0.55,1.96-0.74,2.96-0.92c0.53-0.1,1.03-0.19,1.5-0.33l0.66-0.19
				l-0.09,0.68c-0.18,1.34,0.3,2.59,0.79,3.92c0.21,0.55,0.42,1.11,0.57,1.66c0.16,1.39-0.81,2.26-1.59,2.95
				c-0.17,0.16-0.35,0.31-0.5,0.47c-0.04,0.03-0.08,0.07-0.1,0.09c0.01,0,0.02,0,0.04,0.01l0.12,0.03c0.89,0.37,1.89-0.22,2.25-0.99
				c0.48-0.91,0.72-1.89,0.7-2.78c-0.77-1.83-1.87-4.56-0.85-7.03c0.05-0.09,0.07-0.15,0.1-0.21c0.16-0.38,0.35-0.76,0.74-0.69
				c0.14,0.02,0.38,0.13,0.41,0.55c0.11,0.82,0.15,1.65,0.19,2.45c0.05,0.89,0.1,1.81,0.23,2.69l0.19,1.68
				c0.32,2.79,0.65,5.59,0.99,8.37c0.03,0.25,0.07,0.5,0.12,0.76c0.18,1.07,0.39,2.29-0.29,3.34c-0.44,0.51-1.04,0.86-1.69,1
				L87.67,143.11z M86.01,141.36c0.2,0.1,0.4,0.22,0.6,0.34c0.35,0.22,0.69,0.42,1.04,0.5c0.43-0.11,0.83-0.35,1.09-0.64
				c0.45-0.71,0.29-1.66,0.12-2.66c-0.05-0.27-0.09-0.54-0.12-0.8c-0.23-1.86-0.45-3.73-0.67-5.59c-0.11,0.29-0.23,0.57-0.38,0.85
				c-0.58,1.28-2.06,1.93-3.32,1.45c-0.24-0.03-0.75-0.12-0.89-0.55c-0.16-0.49,0.32-0.91,0.5-1.07c0.15-0.15,0.33-0.31,0.52-0.48
				c0.72-0.65,1.41-1.26,1.31-2.12c-0.14-0.46-0.34-0.98-0.54-1.52c-0.45-1.18-0.9-2.39-0.89-3.7c-0.32,0.07-0.65,0.13-0.98,0.19
				c-0.81,0.15-1.64,0.3-2.36,0.65c0.48,1.68,0.82,3.41,1.1,4.9l0.02,0.11C82.86,134.84,83.57,138.6,86.01,141.36z M87.27,124.49
				c-0.14,0.81-0.05,1.65,0.16,2.52c-0.05-0.57-0.08-1.15-0.11-1.71C87.3,125.03,87.29,124.76,87.27,124.49z M77.1,127.35
				c-0.13,0-0.28-0.05-0.45-0.19c-1.83-1.22-3.03-2.97-3.23-4.76c-0.02-1.52,1.49-2.23,2.9-2.27c0.7-0.06,1.41,0.09,2.08,0.24
				c0.67,0.15,1.29,0.29,1.95,0.21c2.38-0.11,4.72-1.46,6.13-3.51l0.66-0.97l0.14,1.17c0.3,2.42-0.25,4.37-1.56,5.5
				c-1.08,0.79-2.29,1.02-3.45,1.25c-0.58,0.11-1.19,0.23-1.75,0.41c-0.89,0.27-2.06,0.82-2.68,1.86l-0.07,0.09l0,0
				c0.01,0-0.02,0.13-0.03,0.21c-0.06,0.27-0.13,0.62-0.47,0.73C77.23,127.34,77.17,127.35,77.1,127.35z M76.63,121.01
				c-0.09,0-0.18,0-0.26,0.01c-0.85,0.02-2.07,0.39-2.06,1.33c0.16,1.39,1.11,2.82,2.6,3.91c0.04-0.16,0.09-0.32,0.2-0.45
				c0.77-1.27,2.14-1.91,3.15-2.22c0.61-0.2,1.24-0.32,1.85-0.44c1.12-0.22,2.18-0.42,3.06-1.07c1.05-0.91,1.3-2.37,1.3-3.56
				c-1.58,1.75-3.8,2.85-6.05,2.96c-0.75,0.09-1.5-0.07-2.22-0.23C77.66,121.12,77.15,121.01,76.63,121.01z M72.37,121.98l-0.4-0.86
				c-1-2.12-0.95-4.22,0.12-5.61c1.14-1.25,2.95-1.62,5.39-1.12c2.42,0.37,5.11-0.75,7.14-2.99c0.47-0.52,0.82-0.95,1.11-1.37
				l0.61-0.89l0.28,1.52c0.34,1.96,0.53,4.43-1.09,6.09l-0.29,0.32c-0.77,0.83-1.57,1.69-2.7,2.14c-1.07,0.52-2.3,0.47-3.27,0.34
				c-0.7,0.09-1.41,0.03-2.1-0.02c-1.21-0.09-2.35-0.17-3.33,0.45c-0.47,0.28-0.83,0.68-1.05,1.15L72.37,121.98z M75.54,115.07
				c-1.23,0-2.15,0.34-2.78,1.02c-0.94,1.22-0.64,2.86-0.3,3.88c0.25-0.29,0.55-0.55,0.89-0.75c1.21-0.77,2.55-0.67,3.87-0.58
				c0.7,0.06,1.35,0.1,1.98,0.02l0.06-0.01l0.06,0.01c0.84,0.1,1.94,0.17,2.86-0.26c0.98-0.39,1.7-1.17,2.4-1.93l0.31-0.33
				c1.21-1.24,1.19-3.13,0.95-4.77c-0.16,0.2-0.34,0.41-0.55,0.63c-2.24,2.46-5.22,3.69-7.95,3.27
				C76.67,115.14,76.07,115.07,75.54,115.07z M72.11,113.9l-0.07-0.5c-0.05-0.35-0.06-0.71-0.08-1.09
				c-0.04-0.94-0.07-1.82-0.65-2.44l-0.07-0.09c-1.19-2.22,0.64-4.49,1.23-5.14c1.21-1.5,2.79-2.58,4.56-3.13
				c1.3-0.47,2.68-0.58,4.01-0.68l0.54-0.05c0.97-0.2,1.76-0.86,2.6-1.57c0.46-0.38,0.93-0.77,1.44-1.1l0.13-0.08l0.15,0.02
				c0.57,0.03,1.12-0.22,1.7-0.5c0.33-0.16,0.67-0.33,1.04-0.45l0.54-0.17l0.04,0.68c-0.28,3.7-1.34,7.19-3.07,10.06
				c-1.19,1.94-2.26,3.27-3.47,4.32c-1.66,1.31-4,1.87-6.57,1.59c-0.36,0.03-0.8,0.02-1.23,0.01c-0.81-0.01-1.56-0.04-2.28,0.16
				L72.11,113.9z M72,109.31c0.76,0.86,0.81,1.98,0.85,2.97c0.01,0.17,0.01,0.35,0.02,0.52c0.68-0.11,1.35-0.09,2.02-0.08
				c0.41,0.01,0.82,0.02,1.24,0c2.43,0.26,4.51-0.23,5.98-1.39c1.12-0.98,2.14-2.25,3.28-4.1c1.55-2.58,2.55-5.68,2.88-9
				c-0.09,0.04-0.19,0.09-0.28,0.14c-0.57,0.28-1.21,0.59-1.94,0.59c-0.03,0-0.05,0-0.08,0c-0.42,0.27-0.81,0.6-1.22,0.95
				c-0.89,0.74-1.81,1.51-3.04,1.76l-0.59,0.05c-1.28,0.1-2.59,0.21-3.8,0.64c-1.61,0.5-3.04,1.49-4.16,2.87
				C72.13,106.33,71.32,107.97,72,109.31z M70.56,105.88l-0.83-0.32c0.32-1.05,0.95-2.07,1.93-3.12c0.78-1.05,0.31-2.66-0.56-3.69
				c-0.26-0.3-0.54-0.58-0.83-0.86c-0.63-0.62-1.28-1.26-1.66-2.15c-0.57-1.17-0.87-2.92,0.04-4.27l0.24-0.35l0.36,0.23
				c0.58,0.36,1.05,0.85,1.5,1.33c0.64,0.67,1.24,1.3,2.08,1.52l0.14,0.06c1,0.67,2.19,0.69,3.45,0.71
				c0.85,0.01,1.72,0.02,2.56,0.24c0.88,0.21,1.49,0.85,1.99,1.42c0.34,0.27,0.86,0.45,1.4,0.65c0.46,0.16,0.93,0.33,1.34,0.59
				l0.54,0.35l-0.51,0.38c-1.03,0.78-2.24,1.29-3.52,1.48c-0.38,0.06-0.78,0.12-1.18,0.18c-1.74,0.24-3.53,0.49-4.82,1.64
				C72.82,102.97,71.3,104.24,70.56,105.88z M69.17,92.38c-0.41,0.97-0.16,2.15,0.25,3c0.32,0.75,0.88,1.3,1.47,1.88
				c0.31,0.3,0.61,0.6,0.88,0.92c0.81,0.95,1.37,2.35,1.1,3.64c0.26-0.21,0.52-0.41,0.77-0.61c1.46-1.31,3.48-1.59,5.26-1.84
				c0.4-0.06,0.79-0.11,1.16-0.17c0.89-0.13,1.74-0.44,2.5-0.89c-0.16-0.06-0.33-0.12-0.5-0.18c-0.59-0.21-1.21-0.43-1.73-0.85
				c-0.46-0.53-0.95-1.04-1.59-1.19c-0.74-0.2-1.53-0.21-2.35-0.22c-1.31-0.02-2.66-0.04-3.87-0.82c-1.04-0.3-1.75-1.04-2.42-1.75
				C69.79,92.96,69.49,92.65,69.17,92.38z M84.69,97.12c-0.41,0-0.84-0.06-1.26-0.27c-0.65-0.26-1.26-0.69-1.79-1.06l-1.57-1.09
				l-0.9-0.36c-0.56-0.22-1.17-0.18-1.82-0.14c-0.6,0.04-1.21,0.08-1.83-0.08c-2.43-0.38-4.73-1.98-6.27-4.37
				c-1.16-1.15-1.99-3.17-0.94-4.73c0.35-0.97,1.31-1.36,2.17-1.71c0.38-0.15,0.74-0.3,1.04-0.49c0.79-0.41,1.09-1.43,0.7-2.23
				c-0.22-0.76-0.63-2.18,0.31-3.04l0.11-0.08c0.11-0.06,0.34-0.2,0.59-0.04c0.24,0.15,0.25,0.41,0.24,0.55
				c0.17,1.49,0.92,2.76,1.73,4.1c0.78,1.3,1.58,2.64,1.82,4.23l0.01,0.24c0.03,1.23,0.06,2.5,0.48,3.65
				c0.45,1.35,1.19,2.52,2.14,3.39l1.05,0.97L82.02,95c2.67,0.86,5.67,0.15,7.49-1.76l1.02-1.06l-0.26,1.45
				c-0.01,0.07-0.03,0.14-0.05,0.2l-0.01,0.05c-0.31,0.87-0.86,2.07-1.99,2.43c-0.52,0.32-1.17,0.7-1.93,0.7
				c-0.21,0-0.5,0.02-0.77,0.05S84.98,97.12,84.69,97.12z M88.41,95.2c-0.9,0.5-1.92,0.83-2.96,0.97c0.28-0.03,0.56-0.07,0.84-0.06
				c0.55,0,1.05-0.3,1.53-0.6l0.1-0.05C88.1,95.42,88.26,95.33,88.41,95.2z M72.82,79.26c0.03,0.32,0.11,0.67,0.21,1.01
				c0.58,1.15,0.1,2.7-1.07,3.31c-0.33,0.22-0.75,0.39-1.15,0.55c-0.78,0.32-1.46,0.6-1.72,1.29c-0.82,1.23-0.13,2.8,0.84,3.77
				c1.47,2.25,3.55,3.7,5.76,4.06c0.53,0.13,1.04,0.1,1.6,0.06c0.27-0.02,0.55-0.04,0.82-0.04c0.01,0,0.01,0,0.02,0
				c-0.63-0.81-1.13-1.75-1.47-2.78c-0.47-1.27-0.5-2.62-0.53-3.92l0-0.18c-0.2-1.36-0.93-2.57-1.69-3.85
				C73.8,81.51,73.17,80.45,72.82,79.26z M84.33,94.34c-0.76,0-1.41-0.1-1.82-0.18c-1.21-0.26-2.3-1.1-3.33-2.56
				c-0.89-1.32-1.31-3-1.25-5c-0.09-1.7-0.93-3.18-1.82-4.73c-0.62-1.09-1.27-2.22-1.64-3.45c-0.15-0.51-0.22-1.1-0.29-1.66
				c-0.05-0.38-0.09-0.74-0.16-1.07l-0.48-2.38l1.29,2.06c0.74,1.18,2,1.92,3.22,2.64c0.38,0.22,0.75,0.44,1.11,0.67l0.09,0.08
				c0.3,0.34,0.6,0.71,0.9,1.07c1.17,1.42,2.37,2.88,4.11,3.39c1.09,0.25,1.88,0.16,2.41-0.25c1.49-0.8,3.05-0.84,4.57-0.84
				c0.16,0,0.32,0,0.47,0c0.45,0,0.89,0,1.33-0.03l0.91-0.05l-0.52,0.75c-0.26,0.39-0.58,0.75-0.88,1.1
				c-0.68,0.79-1.33,1.54-1.44,2.52c-0.12,0.49-0.21,0.94-0.31,1.39c-0.38,1.81-0.77,3.67-2.16,5.04
				C87.31,94.05,85.65,94.34,84.33,94.34z M75.11,77.06c0.05,0.4,0.11,0.78,0.21,1.11c0.34,1.13,0.96,2.21,1.55,3.26
				c0.9,1.58,1.84,3.22,1.94,5.17c-0.06,1.84,0.31,3.34,1.1,4.5c0.89,1.27,1.81,1.99,2.78,2.2c2.11,0.43,4.11,0.02,5.35-1.09
				c1.19-1.17,1.55-2.9,1.9-4.58c0.1-0.46,0.19-0.92,0.31-1.36c0.14-1.19,0.9-2.08,1.64-2.94c0.09-0.1,0.17-0.21,0.26-0.31
				c-0.22,0-0.45,0-0.67,0c-1.53,0.02-3.01,0-4.31,0.69c-0.69,0.55-1.73,0.68-3.12,0.37c-2.03-0.59-3.32-2.17-4.58-3.68
				c-0.28-0.34-0.56-0.68-0.84-1c-0.33-0.22-0.69-0.42-1.03-0.63C76.73,78.26,75.86,77.74,75.11,77.06z M85.29,82.48
				c-0.26,0-0.53-0.05-0.8-0.15c-1.42-0.54-2.4-1.66-3.35-2.75l-0.42-0.48c-0.63-0.98-1.56-1.53-2.55-2.12
				c-0.84-0.5-1.7-1.01-2.38-1.78l-0.09-0.15c-0.09-0.26-0.19-0.53-0.3-0.8c-0.4-1.02-0.86-2.18-0.47-3.37l0.05-0.1
				c0.63-0.99,1.87-1.65,3.33-1.76l0.14,0l0.05,0.45l0-0.45c0.34,0,0.54,0.15,0.64,0.27c0.27,0.32,0.19,0.75,0.14,1.07
				c-0.01,0.09-0.03,0.18-0.03,0.25c-0.25,2.96,1.55,5.87,4.19,6.83c4.16,1.78,7.8,2.16,10.84,1.11l0.1-0.06
				c0.37-0.19,0.83-0.45,1.35-0.38l0.4,0.04l-0.01,0.41c-0.02,1.14-0.93,2.19-2.12,2.43c-0.96,0.23-1.95,0.18-2.92,0.14
				c-1.32-0.06-2.55-0.12-3.65,0.49C86.83,82.06,86.09,82.48,85.29,82.48z M76.52,74.67c0.58,0.63,1.32,1.07,2.11,1.54
				c1.03,0.61,2.1,1.25,2.8,2.35L81.82,79c0.88,1.01,1.78,2.05,2.99,2.5c0.71,0.28,1.46-0.14,2.16-0.64
				c1.37-0.75,2.8-0.68,4.17-0.62c0.94,0.05,1.83,0.09,2.69-0.11c0.57-0.11,1.06-0.51,1.28-1c-0.1,0.05-0.2,0.1-0.3,0.15l-0.17,0.09
				c-3.31,1.14-7.17,0.77-11.52-1.1c-2.98-1.08-5.04-4.39-4.75-7.69c0-0.07,0.02-0.21,0.04-0.36c0.01-0.08,0.04-0.22,0.04-0.31
				h-0.02c-0.95,0.06-2.09,0.43-2.67,1.29c-0.26,0.87,0.1,1.77,0.47,2.72C76.34,74.17,76.44,74.42,76.52,74.67z M78.5,69.9
				c0.01,0.01,0.02,0.01,0.03,0.01l-0.03-0.45V69.9z M90.58,78.18c-1.43,0-2.86-0.18-4.12-0.54c-1.25-0.37-2.67-0.87-3.92-1.73
				c-2.53-1.87-3.31-5.5-1.76-8.1c1.08-2.11,2.87-3.75,4.64-5.19c0.46-0.46,0.81-1.06,1.18-1.7c0.4-0.68,0.8-1.38,1.42-1.97
				c0.54-0.74,1.6-1.25,2.67-1.25c0.05,0,0.1,0,0.14,0c0.32,0,0.61,0.11,0.84,0.33c0.21,0.19,0.35,0.47,0.43,0.78
				c0.02,0,0.04,0,0.07,0c1.43,0,2.88,0.78,3.97,2.16c0.31,0.33,0.55,0.73,0.78,1.13c0.33,0.56,0.64,1.09,1.17,1.37
				c1.3,0.77,2.79,0.64,4.37,0.51c0.53-0.04,1.05-0.08,1.56-0.09c0.07-0.01,0.19-0.03,0.32-0.05c0.59-0.09,1.28-0.21,1.94,0.17
				c0.49,0.22,0.96,0.55,1.4,0.87c0.45,0.31,0.86,0.61,1.33,0.82l0.63,0.28l-0.51,0.46c-0.98,0.88-2.13,1.53-3.24,2.15l-0.55,0.31
				c-1.59,0.79-3.6,0.4-4.7-0.91c-1.26-1.22-3.45-1.56-5.83-0.86c-0.23,0.04-0.42,0.11-0.62,0.19c-0.48,0.18-1.08,0.42-1.71,0.07
				c-1.31-0.59-2.02-1.81-2.71-2.98c-0.25-0.42-0.49-0.84-0.77-1.22c-0.27-0.51-0.79-0.83-1.22-0.77c-0.06,0.04-0.07,0.08-0.08,0.1
				c-0.03,0.11-0.03,0.38,0.34,1.01c0.34,0.59,0.74,1.17,1.12,1.73c0.33,0.49,0.67,0.98,0.98,1.5c1.12,1.55,3.43,2.07,5.13,1.13
				c1.78-0.82,3.71-0.05,4.84,0.87c0.87,1.05,2.25,1.25,3.6,1.35l1.02,0.08l-0.75,0.69c-2.81,2.58-5.72,5.24-9.37,6.73
				c-0.77,0.44-1.66,0.45-2.29,0.46C91.73,78.15,91.15,78.18,90.58,78.18z M86.84,62.27c-0.24,0.36-0.5,0.71-0.82,1.03
				c-1.73,1.41-3.44,2.96-4.46,4.96c-1.31,2.21-0.62,5.38,1.5,6.95c1.13,0.78,2.48,1.24,3.65,1.59c1.65,0.46,3.63,0.61,5.55,0.42
				c0.85,0.01,1.45-0.1,1.94-0.38c3.24-1.32,5.9-3.61,8.43-5.92c-1.18-0.17-2.36-0.53-3.16-1.51c-0.87-0.69-2.45-1.33-3.82-0.7
				c-2.07,1.13-4.89,0.49-6.28-1.44c-0.32-0.53-0.65-1.01-0.97-1.48c-0.39-0.57-0.79-1.16-1.15-1.78c-0.26-0.45-0.6-1.12-0.42-1.71
				C86.84,62.29,86.84,62.28,86.84,62.27z M97.15,65.91c1.64,0,3.1,0.51,4.12,1.5c0.87,1.03,2.42,1.34,3.63,0.73l0.53-0.3
				c0.88-0.5,1.79-1.01,2.58-1.62c-0.3-0.18-0.58-0.38-0.87-0.58c-0.43-0.31-0.84-0.6-1.29-0.8c-0.42-0.24-0.87-0.17-1.39-0.08
				c-0.14,0.02-0.27,0.04-0.4,0.06c-0.54,0.01-1.04,0.05-1.55,0.09c-1.66,0.14-3.36,0.27-4.88-0.63c-0.74-0.4-1.12-1.06-1.5-1.7
				c-0.22-0.37-0.42-0.72-0.68-1c-1.06-1.33-2.46-2.01-3.69-1.83l-0.49,0.07l-0.01-0.5c-0.01-0.26-0.09-0.5-0.22-0.62
				c-0.07-0.06-0.16-0.07-0.24-0.09h-0.03c-0.86,0-1.67,0.34-2.1,0.94c-0.57,0.55-0.93,1.17-1.31,1.83
				c-0.09,0.15-0.18,0.31-0.27,0.46c0.09-0.09,0.2-0.17,0.32-0.23l0.12-0.04c0.87-0.15,1.77,0.35,2.19,1.18
				c0.25,0.35,0.51,0.79,0.78,1.23c0.64,1.1,1.26,2.14,2.34,2.63c0.29,0.17,0.55,0.07,0.99-0.1c0.24-0.09,0.48-0.19,0.75-0.23
				C95.48,66.04,96.34,65.91,97.15,65.91z M78.76,68.27c-0.06,0-0.11,0-0.17-0.01c-0.32-0.04-0.58-0.18-0.75-0.42l-0.08-0.11v-0.14
				c0-1.31,0.69-1.7,1.09-1.82c0.14-0.07,0.34-0.14,0.54-0.22c0.33-0.12,0.65-0.24,0.91-0.42l0.61-0.41l0.02-0.27
				c0.13-1.94,0.53-4.31,2.43-5.48c1.12-0.58,2.05-0.8,2.94-0.77l0.02,0c0.33,0.03,0.47,0.23,0.52,0.35
				c0.16,0.36-0.09,0.72-0.29,0.98c-0.03,0.05-0.06,0.09-0.08,0.12l-0.17,0.27c-0.55,0.83-1.12,1.69-1.92,2.39
				c-0.34,0.32-0.71,0.66-1.08,0.99c-0.55,0.49-1.12,1-1.6,1.5l-0.46,0.47l-0.59,0.91c-0.3,0.45-0.49,1.01-0.64,1.49l-0.03,0.12
				l-0.1,0.09C79.58,68.12,79.15,68.27,78.76,68.27z M78.65,67.37c0.03,0,0.07,0.01,0.1,0.01c0.15,0,0.32-0.06,0.45-0.13
				c0.08-0.25,0.17-0.53,0.29-0.8c-0.11,0.04-0.22,0.09-0.33,0.14C78.84,66.69,78.69,66.95,78.65,67.37z M85.77,59.08
				c-0.58,0.05-1.24,0.27-1.98,0.65c-1.19,0.73-1.66,2.13-1.86,3.58c0.25-0.23,0.51-0.47,0.76-0.69c0.37-0.33,0.73-0.65,1.08-0.98
				c0.72-0.63,1.23-1.4,1.78-2.22l0.15-0.22C85.7,59.19,85.73,59.14,85.77,59.08z M110.85,65.23c-0.78,0-1.63-0.33-2.49-0.97
				c-0.2-0.11-0.42-0.28-0.64-0.45c-0.49-0.37-0.91-0.68-1.43-0.68c0,0-0.01,0-0.01,0c-1.05-0.13-2.04-0.07-3.1-0.01
				c-1.43,0.1-2.9,0.19-4.36-0.26l-0.12-0.03l-0.08-0.1c-0.38-0.43-0.74-0.91-1.08-1.38c-0.93-1.26-1.81-2.46-3.24-2.9l-0.1-0.05
				c-0.01,0-0.14-0.02-0.21-0.04c-0.31-0.06-0.7-0.13-0.78-0.51c-0.05-0.24,0.07-0.46,0.34-0.65l0.32-0.27
				c0.72-0.58,1.46-1.18,1.42-2.03c0.2-1.59,1.68-2.38,3-2.27c2.42,0.08,4.09,2.03,5.07,3.66c0.3,0.45,0.58,0.95,0.86,1.44
				c0.46,0.81,0.9,1.59,1.47,2.26c1.38,1.28,3.42,1.34,5.39,1.39l0.41,0.01c1.61,0.04,3.62,0.26,4.84,1.65l0.5,0.57l-0.75,0.16
				c-0.4,0.08-0.81,0.13-1.23,0.17c-0.97,0.1-1.89,0.19-2.55,0.81C111.88,65.07,111.38,65.23,110.85,65.23z M106.36,62.24
				c0.75,0,1.36,0.46,1.9,0.86c0.19,0.15,0.39,0.3,0.6,0.42c0.57,0.42,1.91,1.26,2.9,0.55c0.83-0.78,1.99-0.9,3.02-1.01
				c0.06-0.01,0.12-0.01,0.18-0.02c-1-0.61-2.35-0.73-3.48-0.75l-0.41-0.01c-2.04-0.06-4.35-0.13-6.01-1.67
				c-0.66-0.78-1.14-1.62-1.6-2.43c-0.27-0.48-0.54-0.95-0.84-1.41c-0.87-1.45-2.33-3.18-4.35-3.24h-0.01
				c-0.88-0.07-1.94,0.47-2.07,1.42c0.07,1.18-0.88,1.98-1.67,2.62c0.03,0.01,0.07,0.02,0.1,0.04c1.68,0.54,2.68,1.9,3.65,3.21
				c0.31,0.42,0.62,0.84,0.95,1.22c1.27,0.36,2.56,0.27,3.92,0.19c1.05-0.07,2.13-0.14,3.21,0.01
				C106.35,62.24,106.36,62.24,106.36,62.24z M117.36,62.55l-0.78-0.57c-1.75-1.28-4.15-1.78-7.36-1.51
				c-1.78-0.02-3.36-1.3-4.27-3.43c-1.13-2.09-2.5-4.17-4.7-4.88c-0.73-0.26-1.5-0.19-2.31-0.12l-0.59,0.05l-0.3-0.19l-0.07-0.28
				c-0.04-0.34,0.22-0.62,0.48-0.89c0.06-0.07,0.12-0.13,0.15-0.17c1.2-1.25,2.65-2.51,4.53-2.8c0.66-0.13,1.39-0.19,2.34-0.21
				c1.18-0.02,2.69,0.01,4.11,0.65c3.48,1.38,6.42,4.63,7.83,8.69c0.57,1.54,0.75,3.24,0.86,4.71L117.36,62.55z M110.86,59.51
				c2.18,0,4,0.41,5.47,1.25c-0.11-1.17-0.31-2.42-0.73-3.57c-1.33-3.82-4.08-6.88-7.34-8.17c-1.28-0.57-2.69-0.61-3.75-0.58h0
				c-0.9,0.01-1.58,0.07-2.21,0.2c-1.64,0.25-2.94,1.4-4,2.49c0.73-0.06,1.49-0.06,2.24,0.2c2.48,0.81,3.97,3.05,5.21,5.34
				c0.3,0.71,1.4,2.89,3.44,2.92C109.77,59.54,110.32,59.51,110.86,59.51z"/>
		</g>
	</g>
</g>
</svg>
