<?xml version="1.0" encoding="utf-8"?>
<!-- Generator: Adobe Illustrator 24.2.3, SVG Export Plug-In . SVG Version: 6.00 Build 0)  -->
<svg version="1.1" id="Capa_1" xmlns="http://www.w3.org/2000/svg" xmlns:xlink="http://www.w3.org/1999/xlink" x="0px" y="0px"
	 viewBox="0 0 230.11 246.61" style="enable-background:new 0 0 230.11 246.61;" xml:space="preserve">
<style type="text/css">
	.st0{fill:#020203;}
</style>
<g>
	<path class="st0" d="M111.47,1.25C74.69,15.17,37.83,28.88,1.09,42.88c-6.33,57.82,15.32,117.41,54.32,160.13
		c16.67,18.23,36.87,33.28,59.33,43.6c52.09-23.07,90.18-71.95,106.53-125.87c7.56-25.11,10.56-51.67,7.84-77.8
		C191.24,28.52,153.24,14.39,115.34,0C113.96,0.11,112.75,0.83,111.47,1.25L111.47,1.25z M114.7,14.43
		c34.01,12.2,67.78,25.37,101.66,38.06c3.13,44.46-11.9,89.41-37.89,125.34c-16.57,22.6-38.11,41.69-63.18,54.38
		c-52.01-25.57-87.71-78.33-98.77-134.56c-2.67-14.85-4.45-30.24-2.76-45.2C47.38,39.71,81.04,27.07,114.7,14.43L114.7,14.43z"/>
	<g>
		<path class="st0" d="M112.55,189.75c-3.32-0.56-6.55-0.64-9.36-2.72c-4.66-2.17-8.62-5.62-11.52-9.85
			c-2.79-3.62-4.41-8.06-5.27-12.51c-0.68-3.91-0.13-7.76,0.97-11.54c1.34-3.98,3.62-7.59,5.53-11.32
			c5.66-8.98,12.1-17.49,17.37-26.72c2.07-3.76,3.31-7.87,4.87-11.85c2.02,7.43,5.98,14.15,10.44,20.35
			c4.09,6.24,8.73,12.16,12.43,18.63c3.36,6.06,6.05,12.75,6,19.76c-0.67,6.7-3.2,13.45-8.2,18.1c-3.56,4.2-8.48,7.09-13.76,8.55
			c-3,1.08-6.26,1.2-9.41,1.22L112.55,189.75z"/>
		<path class="st0" d="M139.21,143.02c-4.74-5.82-2.14-14.04,1.67-19.61c5.92-10.22,15.26-17.69,24.52-24.71
			c7.7-6.64,14.84-14.49,18.81-23.97c0.09-2.75,2.18-3.45,1.95-0.14c0.12,12.41-6.85,23.7-15.53,32.08
			c-7.24,7.84-16.16,13.84-23.99,21.01c-3.83,4.05-7.41,9.27-7.3,15.05C139.51,143.08,139.76,143.82,139.21,143.02L139.21,143.02z"
			/>
		<path class="st0" d="M176.16,120.85c-6.35,6.12-14.47,9.77-21.71,14.62c-4.39,3.48-9.32,7.24-11.05,12.81
			c-2.45-6.58,1.69-13.46,6.64-17.64c8.23-7.31,18.01-12.94,25.07-21.53c5.65-6.87,11.29-14.49,12.87-23.43
			c-0.45-2.93,1.07-1.8,1.35,0.37C192.37,99.08,185.89,112.35,176.16,120.85L176.16,120.85z"/>
		<path class="st0" d="M178.68,135.81c-5.08,5.14-11.79,8.26-18.81,9.72c-6.57,1.73-13.16,7.02-13.95,13.97
			c-2.54-5.57,0.12-12.06,4.75-15.62c6.08-6.37,15.54-7.28,22.16-12.93c7.05-5.43,13.68-12.49,16.11-21.15
			c2.13,6.2,0.62,13.09-3.33,18.22C183.64,130.88,181.18,133.38,178.68,135.81L178.68,135.81z"/>
		<path class="st0" d="M90.9,143.02c4.74-5.82,2.14-14.04-1.67-19.61c-5.91-10.22-15.25-17.69-24.51-24.71
			c-7.7-6.64-14.84-14.49-18.81-23.97c-0.09-2.75-2.19-3.45-1.95-0.14C43.83,87,50.81,98.29,59.5,106.67
			c7.24,7.84,16.15,13.84,23.99,21.01c3.83,4.05,7.41,9.27,7.29,15.05C90.6,143.08,90.35,143.82,90.9,143.02L90.9,143.02z"/>
		<path class="st0" d="M53.95,120.85c6.35,6.12,14.47,9.77,21.71,14.62c4.39,3.48,9.32,7.24,11.04,12.81
			c2.46-6.58-1.68-13.46-6.64-17.64c-8.23-7.31-18.01-12.94-25.07-21.53c-5.65-6.87-11.29-14.49-12.87-23.43
			c0.44-2.93-1.07-1.8-1.35,0.37C37.73,99.08,44.22,112.35,53.95,120.85L53.95,120.85z"/>
		<path class="st0" d="M102.28,141.09c-1.04-10.5-5.35-20.42-10.17-29.71C83.85,96.45,73.3,82.66,60.59,71.23
			c-4.8-4.37-11.49-7.8-13.24-14.45c-3.51,6.47-0.84,14.09,3.08,19.71c6.59,9.72,15.58,17.5,24.87,24.56
			c9.04,7.93,18.14,24.02,20.88,35.74C98.89,148.5,102.28,141.09,102.28,141.09L102.28,141.09z"/>
		<path class="st0" d="M124.48,145.97c1.04-10.51,5.35-20.42,10.17-29.71c8.26-14.93,18.81-28.72,31.52-40.15
			c4.8-4.37,11.49-7.8,13.24-14.45c3.51,6.47,0.84,14.08-3.08,19.71c-6.59,9.72-15.59,17.5-24.87,24.55
			c-9.04,7.93-18.14,24.02-20.88,35.74C127.87,153.38,124.48,145.97,124.48,145.97L124.48,145.97z"/>
		<path class="st0" d="M51.42,135.81c5.09,5.14,11.79,8.26,18.82,9.72c6.57,1.73,13.16,7.02,13.95,13.97
			c2.54-5.57-0.12-12.06-4.76-15.62c-6.08-6.37-15.54-7.28-22.16-12.93c-7.05-5.43-13.68-12.49-16.11-21.15
			c-2.13,6.2-0.62,13.09,3.33,18.22C46.46,130.88,48.93,133.38,51.42,135.81L51.42,135.81z"/>
	</g>
</g>
</svg>
