<?xml version="1.0" encoding="utf-8"?>
<!-- Generator: Adobe Illustrator 24.2.3, SVG Export Plug-In . SVG Version: 6.00 Build 0)  -->
<svg version="1.1" id="Capa_1" xmlns="http://www.w3.org/2000/svg" xmlns:xlink="http://www.w3.org/1999/xlink" x="0px" y="0px"
	 viewBox="0 0 230.11 246.61" style="enable-background:new 0 0 230.11 246.61;" xml:space="preserve">
<g>
	<path d="M111.47,1.26C74.69,15.18,37.83,28.88,1.1,42.88c-6.33,57.82,15.32,117.4,54.32,160.13
		c16.67,18.23,36.87,33.28,59.33,43.59c52.09-23.07,90.17-71.95,106.53-125.87c7.56-25.1,10.56-51.67,7.84-77.79
		C191.24,28.52,153.24,14.39,115.34,0C113.96,0.12,112.75,0.83,111.47,1.26L111.47,1.26z M114.7,14.43
		c34.01,12.2,67.78,25.37,101.65,38.05c3.13,44.46-11.9,89.4-37.88,125.34c-16.57,22.6-38.11,41.69-63.17,54.37
		c-52.01-25.56-87.71-78.32-98.77-134.55c-2.67-14.84-4.45-30.24-2.76-45.2C47.39,39.71,81.04,27.06,114.7,14.43L114.7,14.43z
		 M114.7,14.43"/>
	<g>
		<path d="M174.32,91c-12.41,0.93-21.87,11.5-24.67,23.12c-4.59,12.68-9.52,25.24-13.95,37.98c5.91-1.14,15.35,2.9,18.7-2.13
			c5.59-14.55,9.49-29.7,15.18-44.2c3.63-7.85,12.77-12.04,21.13-10.03C187.69,91,179.33,91.19,174.32,91L174.32,91z M174.32,91"/>
		<path d="M166.79,75.7c-15.57-0.45-31.17,6.02-41.35,17.89c-11.09,12.17-17.43,27.64-26.02,41.5c-2.59,5.41-8.21,12.62-8.88,16.97
			c9.65-0.01,19.3,0.13,28.95,0.06c3.81-10.54,7.9-21.01,12.53-31.21c6.45-12.79,15.45-26.6,30.16-30.47
			c11.1-2.92,24.98-1.59,32.54,7.96c2.04,2.47,2.07,15.27,4.2,7.63c2.24-9.1-1.37-19.67-9.95-24.14
			C182.36,77.75,174.54,75.83,166.79,75.7L166.79,75.7z M166.79,75.7"/>
		<path d="M151.04,65.79c-19.34-1.08-38.06,6.78-53.24,18.3c-13.85,9.96-24.29,23.58-34.8,36.8c-8.41,10.36-16.9,20.65-25.1,31.2
			c10.13,0.01,20.26-0.03,30.39,0.01c11.64-15.45,21.63-32.05,33.19-47.56c13.75-16.34,32.88-30.36,54.99-30.97
			c8.07-0.25,16.15,1.09,23.83,3.52c-1.44-5.31-10.68-6.57-15.58-8.98C160.28,66.79,155.67,66.01,151.04,65.79L151.04,65.79z
			 M151.04,65.79"/>
	</g>
</g>
</svg>
