<?xml version="1.0" encoding="utf-8"?>
<!-- Generator: Adobe Illustrator 24.2.3, SVG Export Plug-In . SVG Version: 6.00 Build 0)  -->
<svg version="1.1" id="Capa_1" xmlns="http://www.w3.org/2000/svg" xmlns:xlink="http://www.w3.org/1999/xlink" x="0px" y="0px"
	 viewBox="0 0 230.11 246.61" style="enable-background:new 0 0 230.11 246.61;" xml:space="preserve">
<g>
	<g>
		<path d="M166.53,77.36c-2.03-1.81-4.54-3.03-6.93-4.29c-6.08-2.6-12.48-4.32-18.94-5.68c-12.38-2.43-24.96-3.73-37.57-4.18
			c-8.55-0.6-17.11,0.01-25.66,0.06c-5.64,0.11-11.24,0.81-16.88,1.11c0.06-1.92,0.13-3.83,0.19-5.75
			c5.33-0.79,10.72-1.14,16.09-1.53c9.39-0.06,18.79-0.36,28.17-0.26c10.42,0.51,20.85,1.26,31.14,2.97
			c7.19,1.24,14.4,2.62,21.24,5.23c2.63,1.01,5.24,2.19,7.69,3.58c1.74,0.99,3.35,2.63,4.19,4.69c0.65,1.59,0.25,3.32-0.64,4.68
			C168.03,79.18,167.15,77.79,166.53,77.36L166.53,77.36z M166.53,77.36"/>
		<path d="M155.05,88.33c-2.51-2.02-5.27-3.26-8.25-4.56c-4.38-1.56-8.86-2.74-13.39-3.77c-4.4-1-8.89-1.58-13.36-2.26
			c-5.99-0.66-11.98-1.41-18-1.66c-10.73,0.06-21.47-0.03-32.19,0.13c-2.98,0.23-6.38,0.39-9.32,0.67
			c-0.01-1.69-0.03-0.43-0.02-5.06c6.25-0.62,13.98-1.27,20.25-1.4c5.13-0.22,10.18-0.18,15.38-0.15
			c6.74,0.16,13.47,0.37,20.16,1.18c6.47,0.77,13.01,1.62,19.42,2.96c4.55,1.07,9.15,2.14,13.44,4.02c2.24,1.23,4.22,2.09,6.55,3.93
			c1.03,0.87,2.31,1.64,2.51,3.3c0.23,1.55-0.25,3.1-1.4,4.11C156.24,89.3,155.64,88.82,155.05,88.33L155.05,88.33z M155.05,88.33"
			/>
		<path d="M125.3,160.6c0.04-22.05,0.02-44.09-0.01-66.14c-4.01-1.47-8.09-2.48-12.29-3.01v76.02l-10.39-0.1
			c0.04-2.26,0.04-3,0.04-4.79V89.88c-3.96-0.48-8.64-0.82-12.69-1.06c-0.08,1.07,0.03,2.92,0.07,4.51v55.38H79.68l0.13-60.18
			c-1.97,0.08-6.5,0.14-8.33,0.22c0.06,0.84-0.09,1.38-0.05,2.47c-0.05,15.71-0.11,31.42-0.16,47.14H60.91l0.06-54.26
			c8.61-1.09,17.21-1.41,25.84-1.47c10.4,0.45,20.82,0.61,31.11,2.31c7.13,1.01,14.22,2.56,20.92,5.2c2.94,1.38,6.2,2.95,7.48,6.14
			c0.54,2.99-2.09,5.18-4.46,6.47c-1.28,0.2-2.91,2.45-3.63,0.65c-0.47-1.89-0.66-4.92-2.29-5.72c-0.06,1.23-0.02,3.25,0.02,4.72
			v87.4h-10.71C125.28,180.07,125.28,170.33,125.3,160.6L125.3,160.6z M125.3,160.6"/>
	</g>
	<path d="M111.47,1.26C74.69,15.17,37.83,28.88,1.1,42.88c-6.33,57.82,15.32,117.4,54.32,160.13c16.67,18.23,36.86,33.28,59.33,43.6
		c52.09-23.07,90.18-71.95,106.53-125.87c7.56-25.1,10.56-51.67,7.84-77.79C191.24,28.52,153.24,14.39,115.34,0
		C113.96,0.12,112.76,0.83,111.47,1.26L111.47,1.26z M114.7,14.43c34.01,12.2,67.78,25.37,101.65,38.05
		c3.14,44.46-11.89,89.4-37.88,125.33c-16.57,22.6-38.11,41.69-63.17,54.38c-52.01-25.57-87.71-78.33-98.76-134.56
		c-2.67-14.84-4.45-30.24-2.76-45.19C47.39,39.71,81.04,27.07,114.7,14.43L114.7,14.43z M114.7,14.43"/>
</g>
</svg>
