<?xml version="1.0" encoding="utf-8"?>
<!-- Generator: Adobe Illustrator 24.2.3, SVG Export Plug-In . SVG Version: 6.00 Build 0)  -->
<svg version="1.1" id="Capa_1" xmlns="http://www.w3.org/2000/svg" xmlns:xlink="http://www.w3.org/1999/xlink" x="0px" y="0px"
	 viewBox="0 0 230.11 246.61" style="enable-background:new 0 0 230.11 246.61;" xml:space="preserve">
<g>
	<path id="Trazado_5337_3_" d="M111.49,1.23C74.71,15.15,37.84,28.86,1.1,42.87c-6.33,57.83,15.32,117.43,54.34,160.16
		c16.68,18.34,36.85,33.17,59.34,43.61c52.1-23.07,90.2-71.96,106.55-125.9c7.73-25.16,10.39-51.61,7.84-77.81
		c-37.88-14.43-75.89-28.56-113.8-42.95C114.03,0.24,112.73,0.66,111.49,1.23L111.49,1.23z M114.72,14.41
		c34.02,12.2,67.8,25.37,101.67,38.06c3.14,44.47-11.89,89.41-37.89,125.36c-16.51,22.83-38.16,41.46-63.19,54.39
		c-52.01-25.58-87.73-78.35-98.79-134.59c-3.09-14.86-4.02-30.08-2.76-45.2C47.4,39.7,81.05,27.02,114.72,14.41L114.72,14.41z"/>
	<g>
		<g>
			<path d="M153.87,93.5c-0.07,0.5-0.53,0.53-0.85,0.5c-1-0.32-1.32-2.07-1.35-3.06c0.32-0.32,0.75-0.25,1.14-0.29
				C153.23,91.58,153.48,92.54,153.87,93.5z"/>
			<path d="M153.18,94.27c-0.06,0-0.13,0-0.19-0.01c-1.45-0.46-1.58-3.03-1.59-3.32l0-0.11l0.08-0.08c0.33-0.33,0.74-0.34,1.07-0.35
				c0.08,0,0.16,0,0.24-0.01l0.19-0.02l0.08,0.17c0.25,0.54,0.44,1.1,0.63,1.64c0.14,0.4,0.28,0.81,0.45,1.22l0.03,0.07l-0.01,0.07
				C154.07,94.01,153.72,94.27,153.18,94.27z M151.94,91.06c0.07,1.16,0.45,2.46,1.16,2.69c0.38,0.04,0.47-0.11,0.5-0.22
				c-0.16-0.39-0.29-0.79-0.42-1.18c-0.17-0.49-0.33-0.96-0.53-1.42c-0.03,0-0.06,0-0.08,0C152.28,90.94,152.09,90.95,151.94,91.06z
				"/>
		</g>
		<g>
			<path d="M73.36,159.83c0,0,0.04,0,0.04,0.03c0-0.03,0.03-0.03,0.03-0.03C73.4,159.83,73.4,159.83,73.36,159.83z"/>
			<polygon points="73.44,160.1 73.36,160.1 73.36,159.87 73.13,159.87 73.13,159.6 73.63,159.56 73.67,159.87 73.44,159.87 			"/>
		</g>
		<g>
			<path d="M193.24,63.44c-3.63,4.88-6.7,6.87-9.69,7.44c-0.29,0.04-0.61,0.11-0.89,0.11c-0.14,0.04-0.32,0.04-0.5,0.04
				c-0.32,0.04-0.64,0.04-0.96,0.04c-4.24-0.11-8.73-2.21-15.07-1.85c-1.14-1.28-2.85-1.92-4.56-2.1c-2.1-1.92-5.27-0.43-7.8-0.21
				c-1,0.07-2.49,0.07-2.49,0.11c0.11-4.1,3.24-5.59,3.06-6.34c-2.49-0.43-5.31,4.06-6.95,5.56c-5.41-1.85-13.07-0.11-16.39,4.77
				c0,0-3.24,3.38-5.88,4.74c-4.7,2.35-7.54,4.21-12.78,8.17c-7.49,5.34-14.04,5.9-26.37,5.9c-18.42,0-20.95,21.84-34.41,27.07
				c0.85,3.1,5.02-1.14,6.48-2.35c9.05-7.87,13.54-23.05,27.43-23.23c0,0,14.61,0.76,21.81-2.16c6.63-2.9,11.12-8.22,17.32-11.11
				c2.08-0.93,3.48-2.29,4.94-3.62c0,0,4.13-3.46,6.38-5.17v1.6c2.74-3.03,6.88-3.31,10.69-3.78c-1,0.96-2.32,2.28-3.31,3.28
				c-2.81-0.32-6.09,3.99-3.31,6.23c-1.35,0.75-2.35,2.32-2.14,3.88c2.57,2.14,6.8,2.39,9.44,0.28c-2.32,0.04-4.7-0.11-6.73-1.25
				c0.53-1.6,1.85-2.14,3.45-1.92c2.25-0.57,4.31-1.82,6.63-2.17l1.03-0.64c2-1,2.6-4.03,0.75-5.45c-0.32,0.07-0.89-0.04-0.93,0.57
				c0.86,1.64-0.29,3.13-0.82,4.45c-1.85-0.43-3.67,0.07-5.49,0.53c1.68-1.14,3.06-2.96,4.31-4.56c1.14,0.29,3.17-1.32,1.07-1.6
				c0.11-0.18,0.21-0.32,0.32-0.53c0.61,0.21,1.21,0.64,1.85,0.5c7.48-2.1,11.65,0.04,15.03,6.98l0.07,0.21
				c0.11,0.32,0.61,0.43,0.93,0.25c1.5,0.39,3.1,0.46,4.49,1.14c-0.46,1.78-2.17,2.32-3.63,3.03c-0.21-0.78,0.11-2.53-1.1-2.1
				c-1.1,5.34-0.71,11.58,2.28,16.32c-1.1,0.14-2.03-0.75-3.1-0.85c-1.74-0.07-3.31,1.03-4.74,1.92c1.32,0.07,2.81,0.07,4.13,0
				c-1.89,0.36-2.56,2.89-0.71,3.88l0.11,0.89c-3.21,0.82-4.42-1.5-4.67-4.27c-0.32,0.61-0.82,1.43-0.93,2.07
				c-2.53-3.49-7.77-1.53-10.12-4.95c-2.14,2.53,3.1,4.42,5.2,4.52c1.82,0.14,3.31,1.43,5.02,1.57c0.04,0.25,0.11,0.46,0.18,0.68
				c-1.75-0.25-3.24,0.93-4.85,1.21c-0.07-0.03-0.18-0.03-0.25-0.03c0.57-0.46-0.5-1.1-0.78-1.43l-0.28,0.29
				c-1.96-0.32-3.81,0.71-4.67,2.49v1.6c1.35-1.46,3.28-2.39,5.2-2.85c-0.36,0.39-0.18,1.32,0.53,1.18
				c0.11,0.04,0.18,0.07,0.29,0.11c-0.46,5.24,0.25,11.01-3.49,15.21v0.14c-2.57,4.52-7.23,7.23-10.83,10.94
				c-0.5,0.5-0.96,1-1.39,1.53c-0.82,0.28-1.67,0.5-2.56,0.68c-2.96,0.64-4.56,1.28-8.59,2.71c-0.75-1.42-1.35-2.1-1.6-3.63
				c-0.03-0.25-0.07-0.46-0.07-0.68c0-0.68,0.21-1.39,0.68-2.1h-1.42c-3.85,5.09,3.28,7.41-0.11,12.08
				c-1.68-0.32-1.82,0.39-3.13,1.32c1.1-0.04,1.64,0.29,2.03,0.36c-2.07,1.53-2.17,3.67-1.39,5.91c-1.42,0.61-3.03,0.85-4.56,0.57
				c0.36-1.78,1.03-3.67,0.93-5.56c4.17-2.53-2.78-11.22-4.67-13.89c-1.1-2.56,0.64-5.02,1.57-7.3c0.18-0.25,0-0.75-0.46-0.78
				c-3.1,2.1-5.06,6.27-2.78,9.69c-4.7-1.96-9.48-4.24-14.71-4.27c-3.7-2.07-7.62-3.81-12.18-0.93l-3.67,2.92
				c-2.92,2.6-5.06,6.06-7.8,8.8c-5.27,3.17-6.02,10.19-5.88,15.82c-0.07,3.1,2.28,5.24,3.28,7.87c0.03,0,0.03,0,0.07,0
				c0,0-0.04,0-0.04,0.03c0.32,0.78,0.5,1.64,0.46,2.57c-2.64,0.71-5.41-0.21-7.27-2.14c0.11,0,0.35,0,0.53-0.18
				c1.96,1.5,4.35,1,6.27-0.25c0-0.03-0.03-0.03-0.03-0.03c-0.04,0-0.11-0.04-0.14-0.04c-2-0.46-4.06-0.5-6.13-0.43
				c0.53-6.91,2.25-14.32-0.07-21.27c-1.14-3.28,3.14-5.49,3.67-8.3c0,0,0.36-2.35-0.25-5.45c-0.71-3.53-0.75-7.2-0.18-10.72
				c0.71-4.77,2.53-9.33,5.52-13.14c0.25-1.28,6.77-5.7,3.74-5.52c-2.89,1.57-5.06,4.24-6.98,6.84v0.18
				c-5.13,8.09-5.45,18.35-3.42,27.5l-1.46,1.74c0,0-3.35,3.35-2.32,9.76c0.03,2.17,0.36,4.45,0.64,6.77
				c-0.11,3.88-0.71,7.8-0.5,11.68v0.32c0.61,2.88,2.81,4.81,5.7,5.24c1.39-0.04,2.89,0,4.24-0.5c0,0,0.68-0.61,0.78-0.89
				c1.32-3.81-3.56-6.91-3.88-10.9c-0.36-2.49-0.43-5.24,0.11-7.73c0.46-2.17,1.35-4.17,2.89-5.63c0.71-0.75,1.57-1.35,2.6-1.82
				c-1.42,6.2-0.5,13-1.32,19.34c0,0.78,0.61,1.25,0.71,2.07c0.46,4.7,6.88,6.55,9.51,3.38c0,0,0.21-0.43,0.25-0.5
				c-2.71-7.27-4.38-15.78-0.43-22.8c5.41-1.78,12.79-3.21,16.67-7.45c0,0,2.74-2.6,0.71-3.53c4.06,0.82,7.8,2.92,11.93,3.53
				c0.36,0.43,0.93,1.67,0.93,1.67c1.29,2.44,3.34,4.76,3.24,7.35c-0.12,0.11-0.2,0.17-0.33,0.28c-4.31-0.24-6.9,3.56-5.05,6.31
				l0.75,0.85c2.24,2.1,6.48,2.49,8.8,0.18c0,0,1.03-0.75,1.32-1.21v-0.57c-0.32-4.17,5.81-6.38,4.42-11.19
				c6.05-1.92,12.04-1.21,15.28-6.84c6.09,5.59,8.69,9.3,5.13,17.6c0.14,0.21,0.29,0.46,0.43,0.71c0.14,0.14,0.21,0.36,0.39,0.64
				c-2.53,3.31,0.75,10.33,5.7,11.22c0,0,0.39,0.11,0.89-0.46c0.5-0.57,2.32-6.16,2.89-9.44c0.5-2.14-0.68-4.27-0.78-6.41
				c-0.5-3.31-0.04-6.38,0.68-9.62c-2.28-5.74-1.1-12.4-3.7-18.03c1.6-3.74,1.57-8.34-0.18-12.08c1.74,0.18,3.17-1.43,4.88-1.28
				c0.64,0.75,1.64,1.28,2.64,1.35l0.14,0.14c3.7,1.14,7.12-1.85,7.12-1.85c1.6-0.93,2.32-3.14,1.64-4.85l-0.21-0.18l-0.64-0.39
				c-0.78-4.56-3.03-9.55-2.85-14.53c2.67,0.5,5.95-1.35,6.16-4.24c6.59,2,16.21-2.56,17.77-9.58
				C193.59,67.21,194.73,61.19,193.24,63.44z M145.96,71.45c-0.25,0.75-0.89,1.53-1.35,2.14h-0.11c-0.5,0.39-0.46,0.96-0.18,1.46
				c-1.03,0.32-2.07,0.25-2.96-0.36c-0.29-0.36-0.29-0.82-0.04-1.25c2.32-0.68,4.24-2.42,6.02-4.03
				C146.89,70.03,146.46,70.77,145.96,71.45z M86.15,162.33c-2.46,0.25-5.09-0.93-6.66-2.81c1.53,0.82,3.31,1,4.88,0.11
				C84.69,160.72,85.51,161.44,86.15,162.33z M93.46,134.9c-1.53,0.36-3.85,1.14-5.52,2.32c-7.55,3.42-6.31,14.5-3.92,21.05
				c-1.6,0.21-3.24,0.36-4.84,0.57c0.03-0.04-0.64-1.14-0.5-2.99c1.39-6.52,0.11-13.57,1.64-20.06l0.39-1.5
				c2.46-3.28,3.74-5.2,6.95-7.84c0.36-0.43,0.85-0.57,1.21-0.75c4.17-2.07,9.48,0.93,11.04,1.92c0.09,0.05,0.16,0.09,0.25,0.14
				c0.04,0.03,0.11,0.07,0.14,0.11c-0.75,0.39-1.78,1.85-2.64,2.07c-3.78-1.96-6.84,4.35-7.98-2.67c-0.11-0.36-0.5-0.78-1-0.39
				c-1.14,4.45,2,7.73,6.31,5.13c0.82-0.53,1.82,0.04,2.71,0c1.42-0.29,2.85-2.46,3.53-3.7c0.71,0.32,1.35,1.46,2.1,1.75
				C100.65,132.72,96.91,133.76,93.46,134.9z M118.85,147.36c-0.89-0.18-1.57-0.29-2.32-0.68c-0.07-0.04-0.14-0.04-0.25-0.11
				c0.03,0.04-0.23-0.1-0.25-0.28v-0.21c0.25-2.14,1.75-3.46,3.7-3.92C118.71,143.66,118.36,145.65,118.85,147.36z M157.08,157.16
				c-3.21-2.42-5.34-6.16-4.7-10.22c0.29,2.53,3.74,5.02,5.13,6.8c0.07-0.18,0.25,1.57,0.21,2.89L157.08,157.16z M158.04,139.85
				c-0.53,4.2,1.43,8.16-0.25,12.29c-0.85-2.1-2.96-4.38-4.99-5.52l-0.43-0.85c4.88-6.45,0.86-15-5.73-18.42
				c3.7-3.06,6.91-6.84,9.55-10.9C155.87,124.39,159.61,132.01,158.04,139.85z M170.47,100.77l-1.42,0.18
				c-0.71-0.21-1.39-0.71-2.14-0.64l0.14-0.32l0.18,0.14l-0.07-0.32c0.64-0.93,1.14-1.92,1.21-3.06c-0.11-0.28-0.07-0.57-0.29-0.89
				c-0.18-0.07-0.32-0.18-0.57-0.28c1.07-0.04,1.03-0.5,3.46,0.28c0.61,0.21,0.33,0.57,0.01,0.96c-0.59,0.72-0.98,1.84-0.33,2.95
				C170.91,100.2,170.47,100.77,170.47,100.77z M174.46,74.98c0,0-3.99-0.29-5.49,0.21c0-0.03-0.04-0.07-0.04-0.11
				c-0.36-1.57-0.89-3.1-1.74-4.49c7.41,1.32,16.21,5.13,22.73-0.46C185.79,73.87,180.02,76.19,174.46,74.98z"/>
			<path d="M71.38,165.34c-3.09-0.46-5.36-2.54-5.97-5.45l-0.01-0.38c-0.14-2.42,0.05-4.91,0.24-7.31c0.11-1.44,0.22-2.93,0.26-4.39
				l-0.11-0.84c-0.26-2.06-0.5-4-0.53-5.92c-1.04-6.43,2.25-9.81,2.39-9.95l1.36-1.62c-2.31-10.55-1.09-20.31,3.44-27.51v-0.19
				l0.05-0.07c1.84-2.48,4.06-5.27,7.07-6.91l0.11-0.03c0.21,0,0.86-0.05,1.04,0.38c0.27,0.63-0.74,1.61-2.4,3.16
				c-0.9,0.84-2.02,1.89-2.1,2.3l-0.05,0.11c-2.85,3.63-4.73,8.13-5.47,13.02c-0.57,3.55-0.51,7.23,0.17,10.63
				c0.61,3.11,0.27,5.44,0.25,5.54c-0.23,1.21-1.09,2.29-1.92,3.34c-1.23,1.55-2.39,3.02-1.76,4.84c1.83,5.48,1.18,11.22,0.55,16.77
				c-0.16,1.42-0.33,2.89-0.45,4.31c1.7-0.06,3.64-0.03,5.54,0.36c-0.33-0.74-0.77-1.47-1.19-2.17c-0.96-1.6-1.96-3.26-1.91-5.33
				c-0.21-8.23,1.76-13.48,6-16.04c1.16-1.17,2.28-2.55,3.36-3.89c1.36-1.68,2.77-3.43,4.41-4.88l3.68-2.93
				c4.67-2.96,8.7-1.21,12.42,0.87c4.71,0.05,9.06,1.89,13.26,3.67c0.25,0.11,0.5,0.21,0.75,0.32c-1.67-3.36,0.24-7.31,3.26-9.36
				l0.08-0.05l0.09,0.01c0.31,0.03,0.57,0.21,0.7,0.48c0.11,0.25,0.1,0.53-0.04,0.72c-0.16,0.41-0.38,0.88-0.61,1.36
				c-0.87,1.84-1.77,3.75-0.94,5.69c0.14,0.19,0.35,0.48,0.6,0.82c2.09,2.86,5.98,8.19,5.32,11.47c-0.16,0.79-0.57,1.41-1.23,1.85
				c0.05,1.36-0.28,2.71-0.6,4.01c-0.1,0.4-0.19,0.79-0.28,1.18c1.24,0.17,2.62,0,3.91-0.5c-0.77-2.38-0.38-4.28,1.16-5.65
				c-0.34-0.11-0.77-0.25-1.46-0.2l-0.89,0.03l0.73-0.51c0.32-0.23,0.57-0.44,0.79-0.63c0.65-0.55,1.13-0.96,2.37-0.76
				c1.42-2.07,0.65-3.65-0.17-5.32c-0.89-1.82-1.9-3.88,0.18-6.63l0.08-0.11H129l-0.27,0.41c-0.42,0.65-0.63,1.3-0.63,1.96
				c0,0.16,0.02,0.33,0.05,0.51l0.02,0.13c0.18,1.09,0.54,1.71,1.03,2.57c0.14,0.24,0.29,0.49,0.44,0.77l1.34-0.47
				c2.9-1.04,4.51-1.61,7.07-2.16c0.96-0.19,1.75-0.4,2.46-0.64c0.38-0.47,0.81-0.95,1.36-1.49c1.25-1.29,2.65-2.47,4-3.62
				c2.5-2.12,5.09-4.31,6.75-7.2v-0.17l0.07-0.08c2.89-3.25,3.07-7.55,3.24-11.71c0.04-1.04,0.09-2.11,0.17-3.15
				c-0.06-0.02-0.1,0-0.14,0c-0.3,0-0.56-0.15-0.71-0.41c-0.11-0.19-0.15-0.43-0.13-0.65c-1.86,0.53-3.47,1.46-4.57,2.64l-0.46,0.5
				l0.03-2.4c0.9-1.88,2.85-2.93,4.81-2.66l0.39-0.39l0.19,0.21c0.06,0.06,0.15,0.14,0.25,0.23c0.34,0.29,0.77,0.65,0.77,1.07
				c0,0.01,0,0.01,0,0.02c0.5-0.11,1-0.31,1.52-0.52c0.88-0.35,1.76-0.71,2.77-0.68c-0.01-0.05-0.02-0.09-0.03-0.13
				c-0.81-0.11-1.57-0.44-2.31-0.77c-0.8-0.35-1.63-0.71-2.51-0.78c-1.57-0.08-5.05-1.18-5.8-2.9c-0.21-0.47-0.3-1.21,0.41-2.06
				l0.23-0.26l0.2,0.29c1.11,1.62,2.9,1.97,4.81,2.34c1.8,0.35,3.65,0.71,4.97,2.2c0.16-0.43,0.41-0.88,0.63-1.3l0.59-1.12l0.08,0.9
				c0.11,1.27,0.49,2.94,1.61,3.73c0.64,0.46,1.49,0.58,2.5,0.36l-0.06-0.52c-0.82-0.5-1.23-1.34-1.08-2.26
				c0.09-0.58,0.39-1.1,0.81-1.47c-0.99,0.02-2,0.01-2.92-0.04l-0.85-0.05l1.1-0.69c1.28-0.81,2.73-1.73,4.33-1.73
				c0.06,0,0.11,0,0.17,0c0.52,0.05,0.98,0.26,1.43,0.46c0.4,0.18,0.79,0.35,1.19,0.4c-2.54-4.31-3.3-10.14-2.06-16.1l0.03-0.15
				l0.14-0.05c0.35-0.12,0.63-0.1,0.85,0.04c0.42,0.28,0.47,0.92,0.51,1.53c0.01,0.14,0.02,0.27,0.03,0.39
				c0.1-0.05,0.2-0.09,0.3-0.14c1.22-0.56,2.38-1.09,2.8-2.35c-0.82-0.36-1.71-0.52-2.64-0.69c-0.49-0.09-1-0.18-1.49-0.31
				c-0.24,0.1-0.51,0.09-0.75,0c-0.23-0.09-0.39-0.25-0.46-0.45l-0.07-0.21c-3.37-6.92-7.5-8.84-14.7-6.81
				c-0.58,0.12-1.09-0.1-1.55-0.31c0,0,0,0-0.01,0c0.24,0.11,0.39,0.25,0.46,0.44c0.01,0.03,0.02,0.07,0.03,0.1
				c0.16-0.06,0.32-0.07,0.43-0.08c0.07-0.01,0.14-0.01,0.19-0.02l0.12-0.03l0.1,0.08c0.87,0.67,1.31,1.73,1.2,2.9
				c-0.13,1.3-0.89,2.45-1.99,3.01l-1.11,0.66c-1.29,0.2-2.53,0.69-3.74,1.17c-0.93,0.37-1.88,0.75-2.87,1l-0.05,0.01l-0.05-0.01
				c-1.08-0.13-2.47,0.01-3.09,1.53c1.96,1.02,4.24,1.15,6.4,1.1l0.78-0.01l-0.61,0.49c-2.66,2.12-7.04,1.99-9.78-0.29l-0.08-0.07
				l-0.01-0.1c-0.2-1.47,0.59-3.05,1.96-3.96c-0.92-0.91-1.13-2.17-0.57-3.5c0.71-1.7,2.48-2.97,4.05-2.97c0.06,0,0.12,0,0.18,0
				c0.82-0.82,1.81-1.81,2.66-2.64h-0.01c-3.56,0.42-7.24,0.85-9.73,3.6l-0.47,0.51v-1.75c-2.28,1.77-5.9,4.8-5.94,4.83l-0.31,0.28
				c-1.34,1.23-2.73,2.5-4.7,3.38c-2.95,1.37-5.46,3.26-8.12,5.27c-2.81,2.12-5.72,4.31-9.2,5.83c-7.18,2.91-21.78,2.18-21.93,2.18
				c-9.2,0.12-14.33,7.09-19.3,13.83c-2.44,3.31-4.96,6.73-7.94,9.33c-0.18,0.15-0.41,0.35-0.66,0.57c-1.5,1.33-3.77,3.33-5.21,2.89
				c-0.51-0.15-0.86-0.57-1.04-1.25l-0.06-0.23l0.22-0.09c5.58-2.17,9.21-7.16,13.05-12.44c5.23-7.2,10.64-14.65,21.46-14.65
				c12.24,0,18.82-0.58,26.21-5.85c5.49-4.14,8.25-5.9,12.82-8.19c2.56-1.31,5.77-4.65,5.81-4.68c3.42-5.05,11.26-6.61,16.51-4.89
				c0.4-0.38,0.87-0.94,1.37-1.52c1.65-1.93,3.67-4.32,5.69-3.99l0.17,0.03l0.04,0.17c0.09,0.38-0.24,0.74-0.73,1.28
				c-0.81,0.89-2.15,2.36-2.31,4.83c0.13-0.01,0.3-0.01,0.5-0.01c0.51-0.01,1.17-0.03,1.69-0.07c0.65-0.06,1.34-0.19,2.07-0.34
				c1.98-0.41,4.23-0.86,5.87,0.57c1.89,0.22,3.5,0.95,4.55,2.08c3.75-0.18,6.87,0.47,9.63,1.05c1.87,0.4,3.64,0.77,5.34,0.81
				c0.31,0,0.62,0,0.92-0.03c0.2,0,0.36,0,0.47-0.03c0.24-0.01,0.46-0.04,0.66-0.07l0.26-0.04c3.21-0.61,6.23-2.94,9.5-7.33
				c0.15-0.23,0.49-0.74,0.89-0.58c0.5,0.2,0.48,1.74-0.06,4.56c-0.69,3.08-3,5.97-6.35,7.92c-3.67,2.14-8.02,2.87-11.46,1.95
				c-0.18,1.15-0.82,2.2-1.85,2.99c-1.22,0.94-2.82,1.39-4.28,1.21c-0.05,3.06,0.8,6.15,1.62,9.13c0.48,1.71,0.92,3.33,1.21,4.93
				l0.54,0.33l0.32,0.31c0.74,1.86-0.05,4.18-1.75,5.17c-0.1,0.09-3.51,3.05-7.34,1.88l-0.06-0.02l-0.12-0.12
				c-0.97-0.1-1.96-0.61-2.64-1.35c-0.71-0.06-1.43,0.29-2.16,0.62c-0.69,0.32-1.4,0.64-2.18,0.68c1.56,3.65,1.59,8.12,0.05,11.8
				c1.33,2.95,1.67,6.21,1.99,9.35c0.29,2.88,0.6,5.87,1.67,8.58l0.03,0.07l-0.02,0.08c-0.75,3.42-1.15,6.34-0.67,9.52
				c0.04,0.83,0.25,1.66,0.45,2.47c0.32,1.31,0.65,2.67,0.33,4.04c-0.55,3.17-2.38,8.9-2.94,9.55c-0.59,0.68-1.11,0.56-1.16,0.55
				c-2.59-0.47-5.02-2.68-6.17-5.64c-0.87-2.23-0.78-4.4,0.23-5.85c-0.03-0.06-0.06-0.11-0.09-0.17c-0.06-0.12-0.11-0.21-0.17-0.27
				l-0.05-0.06c-0.14-0.24-0.28-0.49-0.42-0.7l-0.08-0.12l0.06-0.13c3.46-8.07,1.09-11.61-4.82-17.07
				c-2.42,3.93-6.28,4.69-10.35,5.5c-1.52,0.3-3.09,0.62-4.67,1.1c0.63,2.62-0.85,4.47-2.28,6.27c-1.2,1.51-2.33,2.93-2.2,4.72v0.67
				l-0.04,0.06c-0.3,0.49-1.28,1.21-1.39,1.29c-2.46,2.46-6.87,1.93-9.14-0.2l-0.77-0.87c-0.85-1.25-0.89-2.77-0.13-4.11
				c0.94-1.66,2.83-2.65,4.99-2.65c0.1,0,0.2,0,0.3,0.01l0.16-0.13c0.02-1.78-1-3.43-2.08-5.18c-0.39-0.63-0.79-1.27-1.13-1.92
				c-0.15-0.33-0.56-1.17-0.83-1.55c-2.22-0.34-4.35-1.11-6.4-1.85c-1.46-0.53-2.96-1.06-4.48-1.45c0.05,0.1,0.08,0.21,0.1,0.32
				c0.21,1.24-1.35,2.75-1.52,2.92c-3.17,3.45-8.62,5.06-13.42,6.48c-1.14,0.34-2.23,0.65-3.25,0.99
				c-3.17,5.71-3.01,13.07,0.5,22.48l0.04,0.11l-0.3,0.61c-1.3,1.57-3.56,2.1-5.76,1.43c-1.88-0.58-3.98-2.17-4.25-4.91
				c-0.05-0.33-0.18-0.6-0.34-0.89c-0.18-0.35-0.38-0.72-0.38-1.2c0.35-2.72,0.38-5.55,0.41-8.28c0.04-3.52,0.08-7.16,0.79-10.59
				c-0.77,0.4-1.44,0.9-2.02,1.52c-1.37,1.31-2.32,3.16-2.82,5.5c-0.47,2.2-0.5,4.84-0.1,7.64c0.14,1.69,1.13,3.24,2.08,4.73
				c1.27,1.98,2.57,4.02,1.79,6.3c-0.13,0.33-0.69,0.85-0.86,1l-0.09,0.05c-1.24,0.46-2.56,0.48-3.83,0.5L71.38,165.34z
				 M72.99,101.96v0.17l-0.04,0.07c-4.51,7.11-5.71,16.81-3.38,27.3l0.03,0.13l-1.54,1.84c-0.05,0.05-3.25,3.36-2.25,9.55
				c0.03,1.92,0.27,3.85,0.53,5.9l0.11,0.88c-0.04,1.51-0.15,3-0.26,4.45c-0.18,2.38-0.37,4.85-0.23,7.25v0.33
				c0.56,2.67,2.61,4.55,5.47,4.97l0.45-0.01c1.21-0.02,2.47-0.05,3.61-0.45c0.29-0.27,0.62-0.62,0.67-0.75
				c0.7-2.02-0.48-3.87-1.73-5.83c-0.99-1.55-2.02-3.16-2.17-4.96c-0.41-2.85-0.37-5.55,0.11-7.81c0.53-2.45,1.52-4.39,2.96-5.77
				c0.74-0.78,1.62-1.4,2.68-1.86l0.49-0.22l-0.12,0.52c-0.81,3.53-0.86,7.33-0.9,11.01c-0.03,2.75-0.06,5.59-0.41,8.3
				c0,0.32,0.15,0.59,0.32,0.92c0.16,0.3,0.34,0.64,0.39,1.07c0.25,2.49,2.16,3.94,3.88,4.46c1.83,0.56,3.68,0.21,4.85-0.88
				l-0.3,0.03c-0.22,0.02-0.45,0.03-0.67,0.03c-2.29,0-4.72-1.13-6.23-2.94l-0.45-0.54l-0.42,0.06l0.25-0.25l-0.26-0.31l0.38,0.2
				l0.07-0.07c-0.16-0.39-0.57-1.43-0.46-2.94c0.68-3.19,0.72-6.53,0.77-9.76c0.05-3.43,0.09-6.98,0.88-10.33l0.44-1.59l0.74-1
				c2.02-2.71,3.35-4.51,6.24-6.88c0.29-0.35,0.7-0.53,1.03-0.67c0.08-0.03,0.16-0.07,0.24-0.11c4.31-2.14,9.74,0.94,11.3,1.94
				l0.3,0.18c0.07,0.04,0.11,0.07,0.14,0.1l0.26,0.25l-0.32,0.17c-0.28,0.15-0.64,0.49-1.01,0.85c-0.55,0.54-1.13,1.1-1.69,1.24
				l-0.1,0.02l-0.09-0.05c-1.42-0.74-2.76-0.21-3.93,0.26c-0.96,0.39-1.88,0.74-2.65,0.31c-0.74-0.42-1.21-1.48-1.53-3.44
				c-0.03-0.1-0.14-0.27-0.27-0.31c-0.02-0.01-0.1-0.03-0.22,0.04c-0.52,2.14-0.04,4.05,1.26,5.02c1.2,0.9,2.9,0.79,4.67-0.28
				c0.62-0.4,1.31-0.26,1.92-0.15c0.33,0.06,0.62,0.13,0.91,0.11c1.13-0.23,2.45-1.99,3.3-3.57l0.12-0.22l0.23,0.1
				c0.39,0.17,0.74,0.55,1.09,0.9c0.33,0.35,0.67,0.71,1,0.83l0.39,0.15l-0.29,0.29c-2.47,2.47-5.8,3.56-9.01,4.6l-0.98,0.32
				c-1.58,0.37-3.84,1.15-5.43,2.27c-3.41,1.55-8.52,7.84-3.82,20.74l0.11,0.31l-0.33,0.05c-0.82,0.11-1.65,0.2-2.48,0.29
				c-0.77,0.09-1.54,0.17-2.3,0.27l0.35,0.18c1.6,0.86,3.24,0.89,4.62,0.11l0.3-0.17l0.09,0.33c0.22,0.74,0.67,1.3,1.16,1.89
				c0.2,0.24,0.39,0.48,0.58,0.73l0.21,0.3c0.08-0.08,0.15-0.16,0.22-0.24l0.17-0.34c-3.54-9.57-3.67-17.07-0.37-22.92l0.05-0.09
				l0.1-0.03c1.06-0.35,2.18-0.68,3.36-1.03c4.75-1.4,10.12-2.99,13.2-6.34c0.44-0.42,1.52-1.65,1.38-2.46
				c-0.05-0.27-0.24-0.49-0.58-0.64l-2.12-0.97l2.29,0.46c1.89,0.38,3.73,1.04,5.51,1.69c2.07,0.74,4.21,1.51,6.41,1.84l0.1,0.01
				l0.07,0.08c0.37,0.45,0.94,1.68,0.96,1.73c0.33,0.62,0.72,1.26,1.11,1.88c1.1,1.77,2.23,3.61,2.16,5.59l-0.01,0.12l-0.48,0.41
				l-0.13,0.01c-0.14-0.01-0.26-0.01-0.39-0.01c-2.32,0-3.84,1.21-4.51,2.38c-0.27,0.48-0.43,0.98-0.47,1.48l1.19,0.83
				c0.3-2.05,1.71-3.49,3.89-4l0.68-0.16l-0.4,0.57c-1,1.44-1.33,3.35-0.85,4.97l0.12,0.42l-0.67-0.13
				c-0.77-0.15-1.43-0.28-2.15-0.66c-0.07-0.02-0.14-0.05-0.22-0.09c-0.11-0.05-0.32-0.19-0.39-0.4l-1.2-1.32
				c-0.04,0.69,0.15,1.38,0.56,1.99l0.73,0.83c2.08,1.95,6.13,2.45,8.41,0.17c0.29-0.22,0.98-0.76,1.24-1.1v-0.49
				c-0.15-1.98,1.1-3.55,2.31-5.07c1.46-1.83,2.84-3.56,2.12-6.04l-0.07-0.25l0.25-0.08c1.68-0.54,3.35-0.87,4.96-1.19
				c4.23-0.84,7.88-1.57,10.16-5.53l0.17-0.29l0.25,0.22c5.72,5.25,8.93,9.07,5.25,17.77c0.11,0.18,0.23,0.38,0.34,0.58
				c0.1,0.11,0.16,0.23,0.24,0.37c0.05,0.09,0.09,0.18,0.16,0.29l0.1,0.16l-0.11,0.15c-0.99,1.3-1.09,3.35-0.26,5.49
				c1.09,2.79,3.36,4.87,5.8,5.31c0.01,0.01,0.27,0.05,0.64-0.37c0.42-0.48,2.24-5.95,2.82-9.31c0.3-1.26-0.01-2.5-0.33-3.81
				c-0.21-0.83-0.41-1.69-0.46-2.54c-0.48-3.21-0.08-6.17,0.67-9.61c-1.08-2.76-1.38-5.74-1.68-8.64c-0.32-3.14-0.65-6.4-1.99-9.3
				l-0.05-0.11l0.05-0.11c1.58-3.69,1.52-8.24-0.17-11.86l-0.07-0.14c-0.09,1.07-0.14,2.19-0.18,3.27
				c-0.17,4.22-0.35,8.58-3.3,11.96v0.11l-0.03,0.06c-1.7,3-4.35,5.24-6.9,7.4c-1.34,1.14-2.73,2.32-3.97,3.59
				c-0.56,0.55-0.99,1.03-1.37,1.51l-0.05,0.06l-0.07,0.03c-0.75,0.26-1.58,0.48-2.6,0.69c-2.52,0.55-4.02,1.08-6.99,2.14
				l-1.77,0.63l-0.11-0.21c-0.19-0.36-0.37-0.67-0.54-0.96c-0.5-0.88-0.9-1.57-1.1-2.76l-0.02-0.13c-0.03-0.21-0.06-0.4-0.06-0.58
				c0-0.62,0.16-1.23,0.48-1.83h-0.82c-1.78,2.43-0.94,4.15-0.05,5.97c0.87,1.77,1.76,3.6,0.02,6l-0.1,0.14l-0.17-0.03
				c-1.13-0.21-1.45,0.06-2.1,0.62c-0.08,0.07-0.16,0.13-0.24,0.21c0.43,0.05,0.75,0.15,1,0.24c0.13,0.04,0.23,0.07,0.33,0.09
				l0.61,0.11l-0.5,0.37c-1.74,1.29-2.16,3.12-1.29,5.61l0.08,0.24l-0.23,0.1c-1.57,0.66-3.19,0.87-4.71,0.59l-0.27-0.05l0.06-0.26
				c0.1-0.49,0.22-0.98,0.34-1.48c0.32-1.31,0.65-2.68,0.58-4.01l-0.01-0.16l0.14-0.08c0.61-0.37,0.98-0.89,1.12-1.59
				c0.61-3.04-3.34-8.45-5.23-11.04c-0.24-0.34-0.46-0.63-0.63-0.88c-0.95-2.21,0.04-4.31,0.92-6.17c0.22-0.47,0.44-0.93,0.62-1.38
				c0.05-0.09,0.06-0.16,0.02-0.24c-0.02-0.05-0.07-0.13-0.18-0.16c-2.97,2.07-4.75,6.07-2.62,9.26l0.49,0.74l-0.82-0.34
				c-0.49-0.21-0.99-0.42-1.49-0.63c-4.17-1.77-8.49-3.59-13.12-3.62h-0.07l-0.06-0.03c-3.76-2.1-7.49-3.74-11.91-0.93l-3.64,2.9
				c-1.59,1.42-2.99,3.14-4.34,4.81c-1.09,1.34-2.21,2.73-3.44,3.97c-4.12,2.49-6,7.58-5.8,15.62c-0.05,1.93,0.87,3.45,1.83,5.05
				c0.49,0.82,1,1.66,1.36,2.55h0.09l0.02,0.24c0.34,0.86,0.5,1.75,0.47,2.64l-0.01,0.19l-0.19,0.05c-2.65,0.72-5.53-0.13-7.53-2.21
				l-0.44-0.45h0.63c0.09,0,0.25,0,0.35-0.1l0.17-0.16l0.18,0.14c1.97,1.5,4.18,0.73,5.42,0.06c-1.96-0.39-3.94-0.39-5.61-0.33
				l-0.3,0.01l0.02-0.3c0.12-1.52,0.3-3.1,0.47-4.62c0.62-5.49,1.26-11.17-0.53-16.54c-0.73-2.09,0.58-3.74,1.85-5.34
				c0.83-1.04,1.61-2.03,1.82-3.1c0-0.01,0.34-2.34-0.25-5.35c-0.7-3.47-0.77-7.21-0.18-10.82c0.74-4.96,2.66-9.53,5.54-13.23
				c0.16-0.54,0.96-1.32,2.25-2.51c0.83-0.78,2.38-2.22,2.27-2.56l0,0c0,0-0.08-0.1-0.46-0.06C76.92,96.87,74.78,99.55,72.99,101.96
				z M67.33,160.53c1.79,1.63,4.2,2.3,6.45,1.76c0-0.66-0.11-1.32-0.33-1.96C71.26,161.65,69.05,161.73,67.33,160.53z M80.61,160.26
				c1.41,1.18,3.25,1.84,5.03,1.83c-0.08-0.1-0.17-0.21-0.25-0.31c-0.44-0.53-0.89-1.08-1.16-1.78
				C83.11,160.53,81.86,160.61,80.61,160.26z M80.95,134.41l-0.38,1.45c-0.78,3.29-0.82,6.8-0.87,10.21
				c-0.04,3.26-0.08,6.63-0.77,9.83c-0.1,1.33,0.26,2.28,0.42,2.64c0.72-0.09,1.44-0.17,2.16-0.25c0.71-0.08,1.43-0.16,2.14-0.25
				c-0.72-2.05-2.07-6.68-1.67-11.5c0.39-4.71,2.41-8.02,5.84-9.57c1.6-1.13,3.93-1.95,5.56-2.33l0.95-0.31
				c3.04-0.99,6.19-2.01,8.54-4.22c-0.3-0.21-0.58-0.49-0.85-0.78c-0.23-0.25-0.47-0.5-0.7-0.66c-0.57,1.01-2.02,3.29-3.58,3.6
				c-0.41,0.02-0.74-0.05-1.08-0.11c-0.56-0.11-1.09-0.21-1.53,0.07c-1.97,1.2-3.89,1.29-5.27,0.26c-1.5-1.11-2.05-3.29-1.43-5.67
				l0.02-0.09l0.07-0.06c0.32-0.25,0.59-0.24,0.79-0.18c0.34,0.11,0.56,0.45,0.63,0.7c0.29,1.77,0.7,2.77,1.28,3.09
				c0.55,0.31,1.31,0.01,2.19-0.34c1.19-0.48,2.68-1.07,4.28-0.29c0.41-0.15,0.91-0.64,1.36-1.07c0.27-0.26,0.52-0.51,0.77-0.7
				l-0.04-0.02c-1.51-0.97-6.73-3.94-10.79-1.92c-0.08,0.04-0.17,0.08-0.26,0.12c-0.31,0.14-0.63,0.27-0.86,0.56
				c-2.88,2.37-4.2,4.14-6.19,6.83L80.95,134.41z M116.31,146.27l0.14,0.09c0.03,0.02,0.06,0.03,0.09,0.04
				c0.04,0.01,0.08,0.03,0.12,0.05c0.6,0.32,1.16,0.44,1.84,0.57c-0.3-1.45-0.06-3.05,0.66-4.4c-1.63,0.59-2.66,1.84-2.85,3.5
				L116.31,146.27z M51.9,117.03c0.14,0.35,0.34,0.57,0.61,0.65c1.14,0.34,3.46-1.69,4.7-2.78c0.26-0.23,0.48-0.43,0.67-0.58
				c2.93-2.55,5.44-5.95,7.86-9.24c5.04-6.85,10.26-13.93,19.74-14.05c0.16,0.01,14.65,0.72,21.71-2.14
				c3.42-1.49,6.3-3.67,9.09-5.77c2.56-1.93,5.21-3.93,8.22-5.33c1.89-0.85,3.19-2.04,4.56-3.29l0.32-0.29
				c0.05-0.04,4.17-3.49,6.39-5.18l0.43-0.33v1.49c2.59-2.47,6.15-2.88,9.59-3.29l1.59-0.19l-0.58,0.55
				c-0.98,0.94-2.28,2.25-3.31,3.27l-0.09,0.09l-0.13-0.01c-1.44-0.18-3.14,1.02-3.81,2.63c-0.3,0.72-0.61,2.08,0.69,3.13l0.31,0.25
				l-0.35,0.19c-1.33,0.74-2.15,2.17-2.01,3.51c2.32,1.88,5.85,2.13,8.32,0.7c-2.05-0.02-4.15-0.25-6-1.28l-0.19-0.11l0.07-0.21
				c0.54-1.59,1.86-2.34,3.69-2.11c0.94-0.24,1.86-0.61,2.75-0.96c1.21-0.48,2.47-0.98,3.8-1.19l0.99-0.61
				c0.95-0.48,1.61-1.49,1.72-2.59c0.09-0.94-0.24-1.8-0.91-2.36c-0.04,0-0.08,0.01-0.12,0.01c-0.34,0.03-0.43,0.07-0.45,0.22
				c0.69,1.4,0.07,2.68-0.48,3.81c-0.13,0.27-0.26,0.54-0.37,0.8l-0.08,0.21l-0.22-0.05c-1.72-0.39-3.39,0.03-5.16,0.48l-1.68,0.42
				l0.1-0.06c-0.98,0.17-1.88,0-2.64-0.53l-0.06-0.06c-0.35-0.43-0.37-1.01-0.06-1.54l0.06-0.09l0.1-0.03
				c2.23-0.65,4.07-2.31,5.85-3.91l0.07-0.06l0.39,0.36c-0.24,0.31-0.46,0.65-0.7,1.02c-0.21,0.33-0.43,0.66-0.66,0.97
				c-0.25,0.71-0.81,1.44-1.26,2.02l-0.2,0.26h-0.14c-0.34,0.33-0.22,0.75-0.04,1.06l0.02,0.03l0.45-0.31
				c1.59-1.07,2.94-2.81,4.13-4.34l0.23-0.3l0.17,0.04c0.49,0.14,1.21-0.19,1.52-0.54c0.1-0.11,0.15-0.22,0.13-0.27
				c-0.01-0.02-0.08-0.19-0.67-0.27l-0.4-0.05l0.21-0.35c0.04-0.07,0.08-0.13,0.12-0.19c0.06-0.1,0.13-0.2,0.19-0.33l0.11-0.21
				l0.22,0.08c0.17,0.06,0.33,0.13,0.5,0.21c0.42,0.19,0.83,0.36,1.2,0.28c7.51-2.11,11.81-0.11,15.33,7.12l0.09,0.24
				c0.02,0.07,0.11,0.11,0.14,0.12c0.13,0.06,0.29,0.04,0.4-0.02l0.09-0.05l0.1,0.03c0.51,0.13,1.04,0.23,1.55,0.32
				c1.01,0.18,2.04,0.38,2.99,0.83l0.19,0.09l-0.06,0.21c-0.43,1.66-1.82,2.3-3.16,2.92c-0.21,0.09-0.41,0.19-0.61,0.29l-0.29,0.14
				l-0.08-0.31c-0.06-0.23-0.08-0.51-0.1-0.81c-0.03-0.44-0.07-0.99-0.27-1.13c-0.06-0.03-0.14-0.04-0.24-0.02
				c-1.2,5.96-0.37,11.77,2.28,15.96l0.22,0.35l-0.41,0.05c-0.71,0.09-1.32-0.18-1.91-0.45c-0.43-0.19-0.83-0.37-1.25-0.41
				c-1.35-0.03-2.62,0.66-3.84,1.43c1.07,0.04,2.22,0.02,3.25-0.03v0.01l0.43-0.01c0.27-0.01,0.46-0.05,0.65-0.08
				c0.56-0.12,1.06-0.22,2.89,0.38c0.29,0.1,0.46,0.25,0.52,0.45c0.1,0.34-0.17,0.66-0.39,0.93c-0.32,0.4-1.01,1.45-0.3,2.65
				c0.34,0.58-0.18,1.27-0.2,1.3l-0.07,0.09l-1.59,0.2l-0.06-0.01c-0.25-0.08-0.5-0.18-0.74-0.29c-0.2-0.09-0.4-0.18-0.6-0.24
				l0.03,0.13l-0.24-0.19c-0.16-0.04-0.32-0.05-0.48-0.04l-0.45,0.05c-1.25,0.31-2.3,0.17-3.11-0.4c-0.87-0.62-1.46-1.74-1.72-3.29
				c-0.22,0.43-0.44,0.89-0.5,1.26l-0.11,0.63l-0.37-0.51c-1.21-1.66-3.04-2.02-4.98-2.4c-1.81-0.35-3.68-0.72-4.92-2.26
				c-0.26,0.42-0.31,0.82-0.13,1.22c0.63,1.46,3.82,2.5,5.34,2.58c0.98,0.08,1.85,0.46,2.69,0.83c0.8,0.35,1.55,0.67,2.34,0.74
				l0.21,0.02l0.03,0.21c0.03,0.21,0.09,0.4,0.16,0.6l0.14,0.41l-0.42-0.03c-1.01-0.14-1.93,0.22-2.9,0.61
				c-0.6,0.24-1.22,0.48-1.86,0.6l-0.09,0.01l-0.08-0.04c-0.02-0.01-0.1-0.01-0.13-0.01l-0.34,0.02c-0.13,0.14-0.15,0.42-0.04,0.61
				c0.07,0.11,0.17,0.17,0.33,0.13l0.07-0.01l0.07,0.02c0.06,0.02,0.11,0.04,0.17,0.06l0.27,0.1l0.35,0.04
				c0.8,0.06,1.55-0.26,2.34-0.62c0.79-0.36,1.63-0.71,2.53-0.66l0.11,0.01l0.07,0.08c0.61,0.71,1.56,1.19,2.46,1.26l0.1,0.01
				l0.17,0.17c3.5,1.03,6.77-1.79,6.8-1.82c1.49-0.86,2.18-2.89,1.59-4.48l-0.16-0.14l-0.71-0.42l-0.02-0.12
				c-0.27-1.61-0.73-3.26-1.21-5c-0.86-3.12-1.75-6.34-1.64-9.59l0.01-0.31l0.31,0.06c1.39,0.26,2.98-0.15,4.17-1.06
				c1-0.77,1.6-1.81,1.68-2.93l0.03-0.33l0.32,0.09c3.35,1.02,7.69,0.32,11.34-1.81c3.22-1.88,5.44-4.64,6.1-7.57
				c0.3-1.56,0.5-3.38,0.38-3.89c-0.05,0.05-0.14,0.15-0.25,0.32l-0.01,0.01c-3.36,4.51-6.49,6.91-9.86,7.55l-0.26,0.04
				c-0.23,0.03-0.46,0.07-0.68,0.07c-0.11,0.03-0.31,0.03-0.5,0.03c-0.3,0.04-0.64,0.04-0.96,0.04c-1.75-0.05-3.54-0.42-5.44-0.82
				c-2.76-0.58-5.9-1.24-9.62-1.03l-0.13,0.01l-0.08-0.1c-0.98-1.11-2.54-1.82-4.39-2.01l-0.09-0.01l-0.07-0.06
				c-1.45-1.33-3.49-0.91-5.46-0.5c-0.75,0.15-1.45,0.3-2.14,0.36c-0.54,0.03-1.21,0.05-1.72,0.07c-0.33,0.01-0.67,0.02-0.73,0.03
				L151.3,67L151,67c0-0.03,0-0.05,0-0.08c0.1-2.81,1.58-4.43,2.46-5.4c0.18-0.2,0.41-0.45,0.53-0.62c0,0,0,0-0.01,0
				c-1.62,0-3.43,2.12-4.89,3.84c-0.58,0.68-1.09,1.27-1.53,1.68l-0.12,0.1l-0.15-0.05c-5.06-1.73-12.73-0.27-16.08,4.67
				c-0.16,0.17-3.33,3.47-5.98,4.83c-4.54,2.28-7.28,4.02-12.75,8.15c-7.52,5.37-14.17,5.96-26.53,5.96
				c-10.54,0-15.87,7.33-21.03,14.43C61.28,109.53,57.5,114.75,51.9,117.03z M150.61,102.54v0.9c1.24-1.14,2.95-2.01,4.87-2.47
				l0.49-0.11c0.01-0.02,0.01-0.03,0.01-0.03c0-0.17-0.38-0.49-0.58-0.66c-0.03-0.03-0.07-0.06-0.1-0.09l-0.19,0.2l-0.14-0.02
				C153.18,99.94,151.44,100.88,150.61,102.54z M167.5,100.08c0.33,0.07,0.64,0.21,0.95,0.34c0.22,0.09,0.42,0.18,0.63,0.25
				l1.25-0.16c0.09-0.16,0.21-0.43,0.1-0.62c-0.61-1.03-0.48-2.25,0.35-3.26c0.08-0.1,0.29-0.36,0.29-0.44l0,0
				c0,0-0.03-0.04-0.18-0.09c-1.62-0.53-2.09-0.47-2.56-0.38c0.15,0.24,0.19,0.45,0.23,0.64c0.02,0.09,0.03,0.19,0.07,0.28
				l0.02,0.05l0,0.06c-0.07,1.01-0.45,2-1.2,3.1L167.5,100.08z M167.12,95.69l0.02,0.14c-0.94,0.18-1.46,0.93-1.57,1.6
				c-0.11,0.74,0.23,1.41,0.93,1.78l0.12,0.07l0.1,0.8l0.23-0.51l0.03,0.02c0.7-1.01,1.05-1.91,1.12-2.81
				c-0.03-0.1-0.05-0.2-0.07-0.31c-0.03-0.15-0.05-0.27-0.13-0.41c-0.07-0.03-0.13-0.07-0.19-0.1c-0.08-0.05-0.18-0.1-0.3-0.15
				L167.12,95.69z M141.56,74.49c0.69,0.46,1.51,0.58,2.4,0.38c-0.22-0.59-0.08-1.13,0.39-1.5l0.07-0.06h0.06l0.05-0.06
				c0.43-0.56,0.97-1.26,1.19-1.9l0.04-0.08c0.07-0.09,0.14-0.18,0.2-0.28c-1.33,1.11-2.79,2.15-4.44,2.66
				C141.37,73.97,141.39,74.26,141.56,74.49z M149.6,70.6l-0.02,0.03c-0.96,1.23-2.02,2.6-3.24,3.67c1.36-0.32,2.76-0.56,4.17-0.27
				c0.09-0.21,0.19-0.41,0.3-0.63c0.52-1.07,1.05-2.18,0.47-3.35C150.84,70.41,150.18,70.64,149.6,70.6z M150.99,68.52
				c0.09,0.02,0.17,0.05,0.24,0.08c-0.08-0.03-0.15-0.07-0.23-0.1C151,68.51,151,68.52,150.99,68.52z M157.08,157.5l-0.17-0.13
				c-3.61-2.73-5.41-6.65-4.8-10.48l0.13-0.81l-0.18-0.35l0.1-0.13c0.07-0.09,0.13-0.18,0.19-0.27l0.06-0.38l0.03,0.25
				c1.68-2.43,2.21-5.26,1.54-8.22c-0.87-3.86-3.74-7.46-7.47-9.4l-0.36-0.18l0.31-0.26c3.53-2.92,6.72-6.56,9.49-10.84l0.53-0.82
				l-0.04,0.97c-0.14,3.43,0.5,6.86,1.11,10.18c0.8,4.32,1.63,8.79,0.74,13.26c-0.21,1.68-0.01,3.36,0.18,4.98
				c0.28,2.39,0.57,4.86-0.45,7.37l-0.25,0.61l-0.25-0.61c-0.81-1.99-2.86-4.26-4.87-5.39l-0.04-0.02l0.01,0.08
				c0.19,1.69,1.9,3.39,3.41,4.89c0.64,0.64,1.24,1.24,1.67,1.78l-0.01,0.01c0.34,0.57,0.28,3.02,0.28,3.05l0,0.12L157.08,157.5z
				 M152.53,148.34c-0.01,3.12,1.62,6.2,4.54,8.48l0.39-0.32c0.02-1.06-0.09-2.25-0.16-2.58l-0.01-0.01
				c-0.4-0.51-0.99-1.1-1.62-1.73C154.49,151,153.2,149.71,152.53,148.34z M153.01,146.43c1.92,1.1,3.78,3.08,4.76,5.01
				c0.7-2.17,0.45-4.28,0.19-6.5c-0.19-1.66-0.4-3.37-0.17-5.12l0-0.02c0.88-4.38,0.06-8.8-0.74-13.07
				c-0.57-3.05-1.15-6.19-1.14-9.36c-2.6,3.87-5.55,7.21-8.79,9.94c3.7,2.05,6.52,5.68,7.4,9.57c0.73,3.23,0.1,6.31-1.82,8.93
				L153.01,146.43z M177.49,75.57c-1.04,0-2.07-0.1-3.07-0.32c-0.29-0.02-3.98-0.26-5.36,0.2l-0.35,0.11v-0.32
				c-0.02-0.04-0.04-0.09-0.04-0.15c-0.38-1.67-0.94-3.11-1.7-4.35l-0.31-0.5l0.58,0.1c1.46,0.26,2.95,0.61,4.52,0.98
				c6.32,1.48,12.86,3.02,17.99-1.38l0.35,0.4C186.37,73.71,181.83,75.57,177.49,75.57z M172.05,74.63c1.25,0,2.35,0.08,2.44,0.08
				l0.04,0.01c3.68,0.8,7.73,0.05,11.41-2.02c-4.45,1.46-9.43,0.28-14.29-0.86c-1.36-0.32-2.65-0.62-3.92-0.87
				c0.62,1.13,1.1,2.41,1.44,3.89C169.91,74.68,171.03,74.63,172.05,74.63z"/>
		</g>
		<g>
			<path d="M157.04,82.92l-0.46-0.11c0.18,0.32,0.11,0.68,0.11,1l-0.43,0.14h-0.96v-1c-0.89,0.18-1.67-0.29-2.17-1.03
				c-1.1,0.5-2.56,0.25-3.7,0.36c0.25-0.18,2.53-1.57,2.85-1.75l-0.18-0.11c1.35-1.68,3.24-1.78,5.02-0.71
				c-0.14,0.04-1.03,0.39-1.21,0.46C157.15,80.57,157.04,81.89,157.04,82.92z"/>
			<path d="M156.3,84.22h-1.27v-0.96c-0.03,0-0.07,0-0.11,0c-0.71,0-1.39-0.36-1.89-1.01c-0.76,0.28-1.61,0.27-2.44,0.27
				c-0.41-0.02-0.79,0-1.14,0.02l-0.99,0.09l0.81-0.58c0.21-0.15,1.72-1.07,2.48-1.53l-0.06-0.03l0.19-0.24
				c1.37-1.68,3.38-1.98,5.37-0.78l0.56,0.33l-0.63,0.16c-0.07,0.01-0.36,0.13-0.63,0.23c0.77,0.58,0.77,1.66,0.76,2.49v0.56
				l-0.35-0.08c0.01,0.15,0.01,0.3,0,0.43c0,0.07-0.01,0.14-0.01,0.2v0.19L156.3,84.22z M155.56,83.69h0.65l0.21-0.07
				c0-0.01,0-0.02,0-0.03c0.01-0.24,0.02-0.46-0.08-0.64l-0.29-0.53l0.72,0.17c0-1.09-0.08-1.88-0.95-2.15l-0.72-0.23l0.85-0.33
				c0.19-0.08,0.37-0.14,0.51-0.2c-1.49-0.69-2.9-0.45-3.96,0.69l0.3,0.17l-0.4,0.23c-0.2,0.11-1.24,0.74-2.01,1.22
				c0.17,0,0.35,0,0.54,0c0.74,0,1.48-0.03,2.09-0.31l0.21-0.09l0.13,0.19c0.48,0.73,1.17,1.06,1.9,0.92l0.32-0.07V83.69z"/>
		</g>
		<g>
			<path d="M150.02,92.43c-2.74-1.85-2.24-5.84-1.5-8.69c1,1.89,1.14,3.99,1.57,6.02C150.27,90.65,151.38,92.22,150.02,92.43z"/>
			<path d="M149.96,92.72l-0.09-0.06c-2.23-1.51-2.77-4.53-1.6-8.99l0.17-0.66l0.32,0.61c0.77,1.46,1.05,3.05,1.31,4.59
				c0.09,0.5,0.17,1.01,0.28,1.51c0.04,0.21,0.14,0.46,0.25,0.74c0.25,0.64,0.51,1.3,0.23,1.79c-0.14,0.25-0.4,0.4-0.77,0.46
				L149.96,92.72z M148.61,84.54c-0.85,3.75-0.36,6.3,1.48,7.61c0.15-0.03,0.24-0.1,0.29-0.18c0.15-0.26-0.08-0.86-0.26-1.34
				c-0.11-0.29-0.23-0.57-0.27-0.82c-0.11-0.5-0.19-1.02-0.28-1.52C149.33,87.03,149.11,85.74,148.61,84.54z"/>
		</g>
		<g>
			<path d="M147.96,107.11c-1.39,2.64-2.06,7.2-5.09,8.05c0.61-2.42,1.03-5.02,2.56-7.09C145.86,106.97,148.67,104.55,147.96,107.11
				z"/>
			<path d="M142.49,115.54l0.11-0.45c0.09-0.37,0.18-0.73,0.27-1.1c0.49-2.09,1.01-4.26,2.32-6.05c0.35-0.85,1.95-2.5,2.75-2.2
				c0.41,0.14,0.5,0.62,0.27,1.45l-0.02,0.05c-0.38,0.71-0.7,1.57-1.04,2.48c-0.89,2.36-1.9,5.04-4.21,5.7L142.49,115.54z
				 M147.75,106.24c-0.03,0-0.09,0.01-0.18,0.05c-0.61,0.24-1.65,1.28-1.88,1.89l-0.03,0.06c-1.27,1.71-1.77,3.83-2.25,5.88
				c-0.05,0.21-0.1,0.42-0.15,0.63c1.75-0.79,2.59-3.03,3.41-5.21c0.34-0.91,0.67-1.78,1.05-2.52c0.17-0.64,0.07-0.77,0.07-0.77
				C147.77,106.24,147.76,106.24,147.75,106.24z"/>
		</g>
		<g>
			<path d="M158.61,77.72c-3.28-0.53-6.52,0.07-9.76,0.14c1.6-0.89,3.42-2.49,5.31-2.71c0.32,0.21,0.29,0.53,0.32,0.82
				c1.07-0.46,2.67-0.29,3.56,0.46h0.11C158.64,76.69,158.47,77.33,158.61,77.72z"/>
			<path d="M147.78,78.15l0.94-0.52c0.45-0.25,0.91-0.55,1.4-0.88c1.27-0.83,2.59-1.7,4-1.86l0.1-0.01l0.08,0.06
				c0.29,0.19,0.37,0.45,0.4,0.67c1.11-0.33,2.56-0.1,3.42,0.56l0.14,0.03c0.47,0.24,0.51,0.71,0.54,1.06
				c0.01,0.14,0.02,0.28,0.06,0.37l0.16,0.43l-0.45-0.07c-2.2-0.36-4.43-0.19-6.6-0.03c-1.02,0.08-2.08,0.15-3.12,0.18L147.78,78.15
				z M154.08,75.43c-1.25,0.18-2.48,0.99-3.66,1.77c-0.18,0.12-0.37,0.24-0.55,0.35c0.69-0.03,1.38-0.09,2.07-0.14
				c2.07-0.15,4.21-0.31,6.35-0.02c0-0.03,0-0.07-0.01-0.1c-0.03-0.32-0.06-0.5-0.2-0.6h-0.13l-0.07-0.06
				c-0.79-0.66-2.29-0.85-3.28-0.42l-0.33,0.14l-0.06-0.51C154.18,75.65,154.17,75.53,154.08,75.43z"/>
		</g>
		<g>
			<path d="M118.53,116.41c-0.53,1.64-1.89,2.85-3.1,3.99c-0.18-1.82,0.75-3.6,1.5-5.24c0.32-1.28,1.14-2.57,1.85-3.67
				C119.07,113.13,118.89,114.84,118.53,116.41z"/>
			<path d="M115.22,120.96l-0.05-0.54c-0.17-1.72,0.62-3.42,1.31-4.92l0.21-0.45c0.32-1.29,1.18-2.63,1.87-3.7l0.37-0.57l0.12,0.67
				c0.25,1.47,0.17,3.16-0.25,5.02l-0.01,0.02c-0.53,1.62-1.83,2.85-2.98,3.92L115.22,120.96z M118.61,112.25
				c-0.57,0.91-1.17,1.96-1.42,2.97l-0.23,0.49c-0.61,1.33-1.25,2.69-1.28,4.08c1.07-1.02,2.14-2.08,2.6-3.46
				C118.62,114.84,118.73,113.48,118.61,112.25z"/>
		</g>
		<g>
			<path d="M75.11,121.64c-0.04,0.04-0.32,0.14-0.39,0.14c-2.49-3.1-1.71-7.98-0.46-11.54C74.25,110.24,75.47,120.58,75.11,121.64z"
				/>
			<path d="M74.72,122.05h-0.13l-0.08-0.1c-2.81-3.49-1.53-8.89-0.51-11.79l0.38-1.1l0.14,1.15c0.13,1.06,1.21,10.42,0.85,11.51
				l-0.06,0.1C75.21,121.93,74.84,122.05,74.72,122.05z M74.13,111.51c-0.76,2.62-1.53,7.05,0.69,9.97
				c0.02-0.01,0.03-0.01,0.06-0.02C75.04,120.48,74.57,115.42,74.13,111.51z"/>
		</g>
		<g>
			<path d="M109.27,104.97c-1.78-5.09,2.21-9.16,4.88-13.04"/>
			<path d="M109.02,105.06c-1.56-4.44,1.19-8.18,3.62-11.48c0.45-0.61,0.88-1.21,1.29-1.8l0.44,0.31c-0.41,0.6-0.86,1.2-1.3,1.81
				c-2.46,3.35-5,6.81-3.54,10.99L109.02,105.06z"/>
		</g>
		<g>
			<path d="M121.92,85.02c2.92,4.02,3.24,9.62,3.99,14.46C125.91,99.49,121.53,89.83,121.92,85.02z"/>
			<path d="M126.47,101.37l-0.8-1.77c-0.18-0.4-4.4-9.77-4.01-14.59l0.06-0.72l0.42,0.58c2.49,3.44,3.11,7.91,3.7,12.23
				c0.11,0.8,0.22,1.58,0.33,2.35L126.47,101.37z M122.16,85.86c0.07,3.49,2.04,8.82,3.19,11.63c-0.01-0.11-0.03-0.21-0.05-0.32
				C124.76,93.2,124.2,89.1,122.16,85.86z"/>
		</g>
		<g>
			<path d="M39.2,127.17c-0.5,0.14-1.35,0.07-1.85,0.14c1.75-1.46,2.14-3.92,3.35-5.7c2.28-3.49,6.52-5.45,10.65-4.42
				C45.86,118.87,42.23,122.5,39.2,127.17z"/>
			<path d="M36.45,127.71l0.73-0.61c1.03-0.86,1.58-2.13,2.12-3.35c0.34-0.79,0.7-1.6,1.18-2.3c2.45-3.74,6.85-5.53,10.94-4.53
				l0.93,0.24l-0.92,0.28c-4.83,1.48-8.53,4.52-12,9.87l-0.05,0.08l-0.1,0.03c-0.33,0.09-0.76,0.1-1.18,0.11
				c-0.27,0.01-0.52,0.01-0.71,0.04L36.45,127.71z M49.11,117.18c-3.19,0-6.3,1.68-8.19,4.57c-0.45,0.67-0.78,1.42-1.13,2.22
				c-0.46,1.06-0.94,2.15-1.73,3.03c0.01,0,0.02,0,0.03,0c0.34-0.01,0.69-0.01,0.95-0.07c3.29-5.04,6.8-8.07,11.26-9.67
				C49.9,117.21,49.51,117.18,49.11,117.18z"/>
		</g>
		<g>
			<path d="M77.46,96.03c-6.77,1.1-9.58,8.23-13.36,13.72c-0.29,0.43-0.57,0.82-0.89,1.21c-0.29,0.39-0.61,0.78-0.93,1.18
				c-0.32,0.36-0.64,0.71-1,1.03c-2.74,3.42-7.94,5.13-10.33,8.3c-0.04,0-0.18,0-0.21-0.04c-2.78,1.17-4.52,3.81-5.49,6.59
				c0.03-0.21,0.11-0.46,0.18-0.68h-0.68l-0.03,0.04c-2.35,1.07-2.46,4.49-3.88,6.77c-1.21,1.92-3.6,2.89-4.74,4.81
				c2.17,0.14,4.17-1.57,5.84-2.78l0.32-0.32c1.38-1.84,1.82-4.21,2.57-6.42c-0.07,1.64-1.57,4.2-0.36,5.45
				c0.93,0.03,0.96-1.35,1.25-1.92c1.39-3.95,2.99-7.91,5.99-10.94c0,0-0.39-0.29-0.39-0.32C64.03,118.51,68.38,104.15,77.46,96.03z
				"/>
			<path d="M36.36,139.23c-0.09,0-0.18,0-0.28-0.01l-0.43-0.03l0.22-0.37c0.6-1.02,1.54-1.77,2.44-2.51c0.85-0.69,1.73-1.4,2.3-2.31
				c0.5-0.79,0.83-1.75,1.17-2.68c0.59-1.68,1.21-3.42,2.79-4.17l0.05-0.05l0.15-0.03h0.57c0.9-2.18,2.5-4.7,5.31-5.89l0.17-0.07
				l0.05,0.05c1.22-1.54,3.04-2.72,4.97-3.97c1.92-1.24,3.91-2.52,5.25-4.2c0.37-0.33,0.66-0.65,1.01-1.04
				c0.32-0.39,0.63-0.77,0.91-1.15c0.31-0.38,0.58-0.75,0.88-1.2c0.77-1.12,1.52-2.33,2.24-3.5c2.85-4.63,5.8-9.43,11.3-10.33
				l0.9-0.15l-0.68,0.61c-3.25,2.9-5.94,6.69-8.54,10.34c-4.56,6.41-9.28,13.04-17.21,15.26l0.23,0.16l-0.22,0.22
				c-3.03,3.05-4.59,7.03-5.93,10.84c-0.08,0.16-0.13,0.37-0.19,0.58c-0.18,0.65-0.42,1.52-1.27,1.52c-0.02,0-0.03,0-0.05,0l-0.11,0
				l-0.07-0.08c-0.38-0.38-0.52-0.87-0.54-1.4c-0.33,0.83-0.73,1.63-1.27,2.34l-0.34,0.34c-0.22,0.16-0.41,0.31-0.61,0.45
				C40,137.95,38.28,139.23,36.36,139.23z M44.85,127.61l-0.01,0.01c-1.41,0.64-1.96,2.21-2.55,3.88c-0.34,0.95-0.69,1.94-1.22,2.79
				c-0.62,0.98-1.53,1.72-2.41,2.44c-0.77,0.62-1.51,1.22-2.05,1.96c1.65-0.1,3.21-1.26,4.61-2.3c0.2-0.15,0.39-0.29,0.58-0.43
				l0.29-0.29c0.99-1.32,1.47-2.95,1.99-4.67c0.17-0.55,0.33-1.11,0.51-1.65l0.47-1.37l-0.05-0.01c0.02-0.11,0.05-0.23,0.08-0.37
				H44.85z M45.16,128.02l-0.06,1.44c-0.02,0.58-0.21,1.23-0.4,1.92c-0.34,1.23-0.7,2.5-0.1,3.24c0.35-0.06,0.5-0.51,0.67-1.12
				c0.07-0.24,0.13-0.47,0.22-0.65c1.26-3.58,2.86-7.68,5.82-10.79c-0.21-0.16-0.25-0.23-0.26-0.33h-0.09c-0.08,0-0.15,0-0.21-0.02
				c-2.95,1.29-4.48,4.18-5.24,6.39L45.16,128.02z M76.57,96.49c-4.68,1.23-7.38,5.62-9.99,9.88c-0.72,1.18-1.47,2.4-2.25,3.53
				c-0.31,0.46-0.59,0.85-0.9,1.23c-0.28,0.38-0.59,0.78-0.93,1.18c-0.35,0.4-0.67,0.74-1.03,1.06c-1.37,1.72-3.39,3.02-5.35,4.28
				c-1.86,1.2-3.63,2.34-4.8,3.79c8-2.05,12.75-8.72,17.35-15.17C71.09,102.85,73.59,99.33,76.57,96.49z"/>
		</g>
		<g>
			<path d="M42.37,126.81l0.14-0.07l0.21-0.11c0.57,0.11,0.5,0.64,0.57,1c-1.1,1.5-2.81,2.89-4.27,4.1
				C39.66,129.98,40.48,127.45,42.37,126.81z"/>
			<path d="M38.43,132.56l0.45-1.23c0.63-1.74,1.5-4.11,3.39-4.77l0.42-0.21l0.09,0.02c0.65,0.12,0.72,0.67,0.75,1.01
				c0.01,0.07,0.02,0.14,0.03,0.2l0.02,0.11l-0.07,0.1c-1.08,1.46-2.7,2.8-4.13,3.98L38.43,132.56z M42.76,126.92l-0.3,0.15
				c-1.46,0.49-2.26,2.29-2.85,3.82c1.22-1.02,2.5-2.14,3.4-3.33c-0.01-0.04-0.01-0.08-0.01-0.12
				C42.97,127.12,42.93,126.98,42.76,126.92z"/>
		</g>
	</g>
</g>
</svg>
