<?xml version="1.0" encoding="UTF-8"?>
<!-- Generator: Adobe Illustrator 24.2.3, SVG Export Plug-In . SVG Version: 6.00 Build 0)  -->
<svg version="1.1" id="Capa_1" xmlns="http://www.w3.org/2000/svg" xmlns:xlink="http://www.w3.org/1999/xlink" x="0px" y="0px" viewBox="0 0 808.33 1008.33" style="enable-background:new 0 0 808.33 1008.33;" xml:space="preserve">
<style type="text/css">
	.st0{fill:#B2B2B2;}
	.st1{fill:#6D6D6D;}
</style>
<g>
	<g>
		<path class="st0" d="M44.52,283.71c-3.7-3.33-3.95-11.11-1.59-52.37c2.16-38.04,4.13-53.74,7.04-56.66    c2.24-2.23,4.78-2.41,27.28-2.03c13.64,0.25,25.34,0.93,26.03,1.54c0.68,0.62,1.42,24.72,1.66,53.57    c0.4,44.47,0.13,52.88-1.71,55.14c-2.01,2.48-4.22,2.73-28.9,3.14C48.84,286.49,47.49,286.39,44.52,283.71L44.52,283.71z     M44.52,283.71"/>
		<path class="st0" d="M675.81,229.28c-3.11-3.35-1.67-51.15,1.56-53.01c1.33-0.75,14.85-1.38,30.01-1.38    c23-0.03,28.04,0.34,30.14,2.26c1.38,1.24,2.52,2.92,2.52,3.69c0,3.96-54.81,50.59-59.46,50.59    C679.04,231.43,676.87,230.47,675.81,229.28L675.81,229.28z M675.81,229.28"/>
		<path class="st0" d="M59.21,156.26c0-4.34,5.35-8.12,27.2-19.23c43.68-22.27,105.32-47.22,143.91-58.25    c15.75-4.51,20.33-5.03,23.06-2.56c1.3,1.18,1.79,11.75,1.79,39.22c0,31.87-0.35,38.07-2.3,40.6l-2.3,2.97h-95.69    C59.5,159.01,59.21,159.01,59.21,156.26L59.21,156.26z M59.21,156.26"/>
		<path class="st0" d="M272.31,156.04c-1.97-2.55-2.31-9-2.31-43.39c0-36.57,0.24-40.66,2.6-43.14c1.81-1.89,7.7-3.73,19.67-6.15    c43.09-8.71,66.23-10.87,115.8-10.74c43.34,0.12,61.27,1.54,98.72,7.94c25.17,4.3,34.47,6.87,36.33,10.01    c0.94,1.57,1.53,18.25,1.53,43.39c0,35.35-0.32,41.14-2.35,42.95c-2.08,1.89-16.36,2.11-135,2.11H274.64L272.31,156.04z     M272.31,156.04"/>
		<path class="st0" d="M562.65,157.22c-2.06-2.26-3.92-72.21-2.06-77.9c1.86-5.7,5.25-5.67,24.53,0.04    c40.03,11.92,94.04,33.83,140.15,56.88c24.24,12.12,26.54,13.69,27.99,19.08l1,3.68h-94.97    C582.03,159.01,564,158.67,562.65,157.22L562.65,157.22z M562.65,157.22"/>
		<path class="st0" d="M404.91,285.3l-5.37-0.51l-1.11-29.48c-0.58-16.21-0.58-41.16,0-55.41c1.04-24.92,1.21-25.95,4.24-26.69    c1.75-0.42,59.73-0.78,128.9-0.78l125.7-0.03l2.3,2.96c1.94,2.51,2.3,8.02,2.29,33.83c-0.05,21.68-0.59,31.69-1.86,33.66    c-2.24,3.48-14.77,13.56-37.89,30.49l-17.66,12.93l-97.08-0.23C453.96,285.92,407.88,285.58,404.91,285.3L404.91,285.3z     M404.91,285.3"/>
		<path class="st0" d="M129.41,285.3c-7.36-0.49-7.78-0.73-8.61-4.8c-1.32-6.48-0.18-105.03,1.25-106.31    c1.62-1.47,258.67-1.47,260.29,0c1.62,1.44,1.62,108.83,0,110.28C381.12,285.58,144.57,286.36,129.41,285.3L129.41,285.3z     M129.41,285.3"/>
		<path class="st0" d="M58.13,411.89c-4.12-1.79-4.09-1.76-7.72-24.5c-5.98-37.43-9.03-76.51-6.57-84.72l0.88-3.02h109.64    c107.26,0,109.64,0.05,111.16,2.62c1.04,1.72,1.43,20.48,1.18,55.21l-0.4,52.59l-3.7,1.7C257.66,414.03,63.28,414.13,58.13,411.89    L58.13,411.89z M58.13,411.89"/>
		<path class="st0" d="M286.34,411.77l-3.7-1.7L282.25,357c-0.35-47.02-0.13-53.35,1.96-55.24c2.14-1.91,16.36-2.08,144.96-1.79    c132.08,0.32,142.73,0.52,144.2,2.62c2.72,3.92-0.71,6.55-44.32,33.88c-33.68,21.12-64.61,39.09-103.04,59.87l-31.79,17.17    l-52.07-0.03C303.14,413.49,289.11,413.05,286.34,411.77L286.34,411.77z M286.34,411.77"/>
		<path class="st0" d="M645.58,629.34c-22.32-14.79-247.1-161.42-267.68-174.61c-9.44-6.06-11.45-8.93-8.78-12.56    c0.59-0.81,15.11-8.58,32.26-17.27c81.82-41.51,154.19-85.7,227.13-138.73c35.89-26.07,60.34-45.47,100.03-79.35    c43.14-36.81,41.25-35.44,44.44-32.52c2.11,1.91,2.46,5.17,2.28,21.95c-0.22,21.93-2.84,38.98-9.51,61.59    c-15.99,54.35-53.03,102.68-109.28,142.56c-5.25,3.73-9.22,7.04-8.83,7.41c0.39,0.35,6.6-2.82,13.81-7.04    c40-23.47,74.86-54.48,98.63-87.71c12.46-17.41,14.03-19.01,18.08-18.49c3.16,0.39,3.24,0.9,3.02,16.48    c-0.59,38.87-18.96,89.89-45.51,126.37c-18.74,25.73-42.4,48.61-66.81,64.51c-6.2,4.05-11.33,7.82-11.36,8.39    c-0.09,1.81,16.88-6.6,33.21-16.46c15.85-9.56,34.07-24.68,53.2-44.17l9.88-10.03l0.08,7.51c0.05,5.76-2.16,13.64-9.39,33.51    c-13.1,35.98-20.09,51.46-36.6,80.87c-19.82,35.41-45.74,73.39-50.43,73.95C656.22,635.62,650.88,632.85,645.58,629.34    L645.58,629.34z M645.58,629.34"/>
		<path class="st0" d="M92.89,526.1c-6.01-5.44-30.22-75.23-31.71-91.49l-0.91-9.71h73.46c40.4,0,104.64,0.39,142.78,0.88    c74.69,0.96,77.37,1.23,71.43,7.19c-5.49,5.49-71.65,34.07-125.46,54.18c-43.07,16.11-118.69,40.88-124.72,40.88    C96.27,528.03,94.09,527.16,92.89,526.1L92.89,526.1z M92.89,526.1"/>
		<path class="st0" d="M363.53,832.7c-45.16-30.29-62.89-43.66-63.58-47.95c-0.59-3.68,0.73-4.68,18.22-13.83    c7.28-3.82,12.58-7.16,11.72-7.41c-0.85-0.26-9.64,2.26-19.52,5.59c-9.88,3.36-19.45,6.08-21.24,6.08    c-8.04,0-97.69-87.98-97.77-95.95c-0.05-3.9,1.57-4.86,17.78-10.57c24.55-8.66,62.52-26.37,60.49-28.21    c-0.37-0.35-9.62,2.35-20.56,5.98c-20.43,6.77-57.66,17.22-62.94,17.64c-9.03,0.73-9.74,0.12-26.96-23.18    c-16.36-22.12-35.45-52.02-47.41-74.3c-9.74-18.15-10.89-21.78-7.65-24.21c1.03-0.76,12.53-4.71,25.61-8.78    c51-15.87,99.88-33.02,135.08-47.36c27.18-11.08,39.42-15.38,41.65-14.62c1.11,0.37,3.06,2.57,4.39,4.86    c1.3,2.28,30.07,66.86,63.92,143.49c33.85,76.63,62.82,141.53,64.36,144.25c5.12,9.02,16.7,16.31,25.85,16.31    c6.13,0,15.82-3.77,29.21-11.4c13.74-7.82,16.34-8.53,19.31-5.3c2.4,2.62-0.81,9.35-10.67,22.25    c-10.86,14.23-20.01,23.28-35.39,34.93c-19.7,14.96-56.91,37.23-62.01,37.16C402.58,858.11,390.27,850.63,363.53,832.7    L363.53,832.7z M363.53,832.7"/>
	</g>
	<path d="M391.79,8.51C264.66,56.63,137.26,103.99,10.25,152.39c-21.88,199.85,52.98,405.82,187.76,553.51   c57.64,62.99,127.45,115.01,205.11,150.68c180.03-79.74,311.7-248.69,368.21-435.05c26.15-86.78,36.5-178.62,27.11-268.91   C667.51,102.74,536.13,53.89,405.13,4.17C400.37,4.56,396.23,7.04,391.79,8.51L391.79,8.51z M402.95,54.03   c117.54,42.19,234.3,87.71,351.37,131.54c10.84,153.7-41.11,309.03-130.95,433.25c-57.27,78.09-131.74,144.1-218.35,187.93   C225.24,718.4,101.84,536.03,63.62,341.67c-9.25-51.31-15.4-104.52-9.54-156.22C170.28,141.42,286.61,97.71,402.95,54.03   L402.95,54.03z M402.95,54.03"/>
	<path class="st1" d="M330.22,466.51c0-5.98,5.34-10.94,11.77-10.94c3.63,0,9.42,2.29,15.59,6.17c5.73,3.63,23.54,15.08,32.96,21.25   c3.5,2.29,9.23,5.98,12.66,8.21c5.6,3.56,23.35,15.02,41.42,26.66c3.44,2.23,9.16,5.92,12.66,8.21   c14.13,9.16,20.36,13.17,33.79,21.76c15.27,9.86,25.64,16.54,37.29,24.11c14.76,9.54,42.69,27.55,61.27,39.39   c4.39,2.8,10.12,6.49,12.73,8.21c2.61,1.72,8.4,5.47,12.85,8.34c4.52,2.86,10.12,6.43,12.47,7.95c2.42,1.53,6.94,4.45,10.05,6.49   c6.74,4.33,9.48,7.64,10.18,12.15c0.89,6.11-3.37,12.22-10.94,15.65c-1.53,0.7-4.14,1.97-5.73,2.8c-1.59,0.83-6.49,3.25-11.01,5.41   c-4.45,2.16-10.43,5.09-13.17,6.62c-2.8,1.46-5.22,2.67-5.47,2.67c-0.19,0-2.67,1.21-5.54,2.67c-2.86,1.46-8.27,4.14-12.03,5.98   c-9.99,4.9-16.73,8.53-17.62,9.54c-0.45,0.51-1.08,2.16-1.34,3.69c-0.51,2.61-1.59,7.25-4.9,20.49c-0.76,3.25-2.35,9.67-3.5,14.25   c-1.15,4.58-2.67,10.63-3.5,13.49c-2.48,9.16-3.05,7.95,12.85,29.59c7.89,10.69,16.22,21.95,18.58,25.01   c2.35,3.05,6.17,8.08,8.53,11.13c1.08,1.4,2.23,2.93,3.25,4.2c3.44-1.08,6.94-1.59,10.5-1.59c10.88,0,21.7,4.84,28.95,14.06   l82.4,104.48c12.53,15.97,9.8,39.07-6.11,51.67c-6.74,5.28-14.76,7.89-22.72,7.89c-10.88,0-21.63-4.84-28.89-14.06l-82.4-104.48   c-9.04-11.45-10.18-26.6-4.14-38.94c-0.57-0.83-1.27-1.65-1.97-2.55c-9.1-11.58-15.91-20.68-31.88-42.44   c-19.79-27.11-20.23-27.81-20.23-31.75c0-1.78,0.64-5.73,1.46-8.59c0.76-2.93,2.1-8.14,2.99-11.58c0.83-3.44,2.23-9.04,3.12-12.47   c3.25-12.73,5.28-20.93,5.73-22.97c0.51-2.35-0.19-3.44-11.64-18.39c-3.37-4.39-7.89-10.31-10.05-13.17   c-9.48-12.53-12.66-16.8-17.75-23.35c-2.93-3.75-7.32-9.54-9.74-12.85c-2.42-3.18-5.85-7.76-7.64-10.05   c-8.84-11.45-37.35-49.12-41.48-54.91c-0.7-0.95-2.16-2.48-3.37-3.44l-2.1-1.85l0.51,1.91c0.7,2.55,3.75,7.7,11.01,18.71   c1.15,1.78,8.78,13.62,12.92,20.11c0.76,1.21,4.52,7.13,8.4,13.23c3.82,6.11,7.25,11.45,7.57,11.83s1.4,2.1,2.48,3.82   c1.02,1.72,4.14,6.68,7,11.07c6.49,10.12,6.24,9.8,15.72,24.69c4.39,6.87,10.43,16.42,13.49,21.19c3.05,4.77,6.49,10.05,7.7,11.77   c2.86,4.07,2.8,6.24-0.32,8.08c-2.1,1.21-28.89,17.75-42.88,26.47c-7.51,4.64-13.36,4.77-19.66,0.45   c-3.12-2.1-4.01-3.75-11.13-20.36c-3.24-7.44-6.17-14.19-6.55-14.95c-0.38-0.76-1.15-2.61-1.78-4.14   c-0.57-1.53-2.48-6.04-4.26-10.12c-1.72-4.01-3.69-8.53-4.26-10.05c-2.55-6.43-5.03-11.83-5.66-12.47c-0.38-0.38-0.7-1.08-0.7-1.65   c0-0.51-0.83-2.74-1.85-4.9c-2.48-5.28-9.48-21.32-10.75-24.75c-0.64-1.53-1.4-3.44-1.78-4.14c-0.38-0.76-3.56-8.14-7.13-16.35   c-15.65-36.4-27.17-62.99-27.81-64.26c-0.38-0.76-3.31-7.51-6.43-14.95c-3.18-7.44-6.11-14.19-6.49-14.95   c-0.38-0.76-3.94-9.03-7.95-18.39c-4.01-9.35-7.64-17.62-8.02-18.45c-0.45-0.76-1.08-2.29-1.4-3.44c-0.38-1.15-1.78-4.45-3.12-7.32   C332.32,475.55,330.22,469.38,330.22,466.51z"/>
</g>
<g>
</g>
<g>
</g>
<g>
</g>
<g>
</g>
<g>
</g>
<g>
</g>
</svg>